<svg width="86" height="74" viewBox="0 0 86 74" fill="none" xmlns="http://www.w3.org/2000/svg">
<g clip-path="url(#clip0_247_1715)">
<path d="M23.3999 2.49992C29.1999 2.09992 33.8999 4.49992 38.0999 8.29992C39.1999 9.29992 40.2999 10.2999 41.2999 11.4999C42.4999 12.9999 43.1999 12.5999 44.4999 11.2999C48.4999 7.09993 52.8999 3.39992 59.0999 2.69992C66.4999 1.89992 72.3999 4.69992 76.9999 10.2999C85.2999 20.2999 84.7999 31.1999 78.4999 42.4999C74.0999 50.4999 67.2999 56.3999 59.7999 61.4999C54.7999 64.8999 49.5999 67.6999 44.2999 70.4999C43.2999 70.9999 42.4999 71.0999 41.3999 70.5999C33.6999 66.4999 25.9999 62.1999 19.2999 56.4999C10.6999 49.2999 4.29992 40.6999 2.69992 29.1999C1.39992 18.8999 8.49992 5.89992 19.9999 2.99992C21.0999 2.69992 22.2999 2.69992 23.3999 2.49992Z" fill="#FF614E" stroke="#F2F2ED" stroke-width="5" stroke-miterlimit="10"/>
</g>
<defs>
<clipPath id="clip0_247_1715">
<rect width="85.7" height="73.5" fill="white"/>
</clipPath>
</defs>
</svg>
