<?xml version="1.0" ?><svg data-name="Layer 1" id="Layer_1" viewBox="0 0 128 128" xmlns="http://www.w3.org/2000/svg"><defs><style>.cls-1{fill:#fc785e;}.cls-2{fill:#ffdb80;}.cls-3{fill:#e1ebf4;}.cls-4{fill:#2d4356;}.cls-5{fill:#f9dbd7;opacity:0.3;}.cls-6{fill:#f9edd2;}.cls-6,.cls-7,.cls-8,.cls-9{opacity:0.5;}.cls-7{fill:#fff;}.cls-8{fill:#9fa5aa;}.cls-9{fill:#a54b3f;}.cls-10{fill:#ad9359;opacity:0.45;}</style></defs><title/><path class="cls-1" d="M117,11.4115V15a13,13,0,0,1-26,0V11.1275c-15.82507.1369-36.99567.36-54,.54633V15a13,13,0,0,1-26,0V11.96539C9.07562,11.98749,8,12,8,12s-5.5-1-5.5,5.5V32H127V19S127.7348,13.04144,117,11.4115Z"/><path class="cls-2" d="M2,32V90s2,7,7,7H48.61A40.84556,40.84556,0,0,1,48,90c0-1,.04-2,.11-3,.02-.31.05-.62.08-.93.04-.43.09-.87.15-1.3.06995-.59.15-1.18.25-1.77H45V71h7.67c.55-1.07,1.15-2.12,1.79-3.14.18-.29.37-.58.57-.86A43.79326,43.79326,0,0,1,67,54.97a39.8363,39.8363,0,0,1,4-2.39V45H83v3.6c.12-.02.23-.04.35-.06.94-.16,1.9-.28,2.86-.36.25995-.03.52-.05.79-.07,1.01-.07,2.04-.11,3.06-.11.98,0,1.96.03,2.94.11.6.04,1.2.09,1.79.16.41.05.82.1,1.22.17.33.04.66.1.99.15V45h12v7.56c.26.13.53.27.79.42.41.23.83.46,1.24005.69.67.39,1.33.79,1.97,1.21a43.44879,43.44879,0,0,1,6.68,5.43,33.65315,33.65315,0,0,1,3.02,3.4,49.63581,49.63581,0,0,1,3.3,4.96V32ZM31,83H19V71H31ZM57,57H45V45H57Z"/><path class="cls-3" d="M83,45v3.6A40.68082,40.68082,0,0,0,75,50.78a38.56032,38.56032,0,0,0-4,1.8V45Z"/><path class="cls-3" d="M52.67,71c-.34.66-.66,1.32-.96,2a41.36539,41.36539,0,0,0-2.69,8c-.16.67-.29,1.33-.41,2q-.15.885-.27,1.77c.06995-.59.15-1.18.25-1.77H45V71Z"/><path class="cls-3" d="M109.79,52.98A42.25946,42.25946,0,0,0,97,48.59V45h12v7.56C109.26,52.69,109.53,52.83,109.79,52.98Z"/><path class="cls-4" d="M33,67H17a2.00591,2.00591,0,0,0-2,2V85a2.00591,2.00591,0,0,0,2,2H33a2.00591,2.00591,0,0,0,2-2V69A2.00591,2.00591,0,0,0,33,67ZM31,83H19V71H31Z"/><rect class="cls-3" height="12" width="12" x="19" y="71"/><path class="cls-4" d="M104,0a9.01353,9.01353,0,0,0-9,9v6a9,9,0,0,0,18,0V9A9.01353,9.01353,0,0,0,104,0Zm5,15a5,5,0,0,1-10,0V9a5,5,0,0,1,10,0Z"/><path class="cls-3" d="M109,9v6a5,5,0,0,1-10,0V9a5,5,0,0,1,10,0Z"/><rect class="cls-4" height="4" width="54" x="37" y="10"/><path class="cls-4" d="M24,0a9.01353,9.01353,0,0,0-9,9v6a9,9,0,0,0,18,0V9A9.01353,9.01353,0,0,0,24,0Zm5,15a5,5,0,0,1-10,0V9A5,5,0,0,1,29,9Z"/><path class="cls-3" d="M29,9v6a5,5,0,0,1-10,0V9A5,5,0,0,1,29,9Z"/><path class="cls-4" d="M55.03,67c-.2.28-.39.57-.57.86C53.82,68.88,53.22,69.93,52.67,71H45V83h3.59c-.1.59-.18005,1.18-.25,1.77-.06.43-.11.87-.15,1.3-.02.31-.05.62-.07.93H43a2.00591,2.00591,0,0,1-2-2V69a2.00591,2.00591,0,0,1,2-2Z"/><path class="cls-4" d="M59,41H43a2.00591,2.00591,0,0,0-2,2V59a2.00591,2.00591,0,0,0,2,2H59a1.898,1.898,0,0,0,.85-.2c.31-.32.63-.64.95-.95A1.898,1.898,0,0,0,61,59V43A2.00591,2.00591,0,0,0,59,41ZM57,57H45V45H57Z"/><rect class="cls-3" height="12" width="12" x="45" y="45"/><path class="cls-4" d="M87,43v5.11c-.27.02-.53.04-.79.07-.96.08-1.92.2-2.86.36-.12.02-.23.04-.35.06V45H71v7.58a39.8363,39.8363,0,0,0-4,2.39V43a2.00591,2.00591,0,0,1,2-2H85A2.00591,2.00591,0,0,1,87,43Z"/><path class="cls-4" d="M113,43V54.88c-.64-.42-1.3-.82-1.97-1.21-.41-.24-.82-.47-1.24005-.69-.25995-.15-.53-.29-.79-.42V45H97v3.59c-.33-.05-.66-.11-.99-.15-.99-.15-2-.25-3.01-.32V43a2.00591,2.00591,0,0,1,2-2h16A2.00591,2.00591,0,0,1,113,43Z"/><path class="cls-4" d="M120,10h-3v4h3a4.00458,4.00458,0,0,1,4,4V30H4V18a4.00458,4.00458,0,0,1,4-4h3V10H8a8.00917,8.00917,0,0,0-8,8V90a8.00917,8.00917,0,0,0,8,8H48.77356c-.25433-1.31317-.44977-2.64667-.57831-4H8a4.00458,4.00458,0,0,1-4-4V34H124V65.38538a42.02594,42.02594,0,0,1,4,6.749V18A8.00917,8.00917,0,0,0,120,10Z"/><path class="cls-4" d="M119.52,66.13a31.39205,31.39205,0,0,0-2.66-2.99,37.93854,37.93854,0,0,0-40.44-8.62A38.79825,38.79825,0,0,0,57.85,70a37.749,37.749,0,0,0-5.54,15.29A35.25709,35.25709,0,0,0,52,90a38.04314,38.04314,0,0,0,38,38,38.83223,38.83223,0,0,0,28.65-13.07A38.15054,38.15054,0,0,0,128,90,39.88513,39.88513,0,0,0,119.52,66.13Zm-4.12,46.44-2.86-2.86a2.00108,2.00108,0,0,0-2.83,2.83l2.86,2.86A33.86213,33.86213,0,0,1,92,123.94v-4.07a2,2,0,1,0-4,0v4.07a33.86213,33.86213,0,0,1-20.57-8.54l2.86-2.86a2.00108,2.00108,0,1,0-2.83-2.83l-2.86,2.86A33.86213,33.86213,0,0,1,56.06,92h4.07a2,2,0,0,0,0-4H56.06A33.86213,33.86213,0,0,1,64.6,67.43l2.86,2.86a2.00108,2.00108,0,0,0,2.83-2.83L67.43,64.6A33.86213,33.86213,0,0,1,88,56.06v4.07a2,2,0,0,0,4,0V56.06a33.86213,33.86213,0,0,1,20.57,8.54l-2.86,2.86a2.00108,2.00108,0,0,0,2.83,2.83l2.86-2.86A33.86213,33.86213,0,0,1,123.94,88h-4.07a2,2,0,1,0,0,4h4.07A33.86213,33.86213,0,0,1,115.4,112.57Z"/><path class="cls-3" d="M117.87,90a2.00591,2.00591,0,0,1,2-2h4.07a33.86213,33.86213,0,0,0-8.54-20.57l-2.86,2.86a2.00108,2.00108,0,0,1-2.83-2.83l2.86-2.86A33.86213,33.86213,0,0,0,92,56.06v4.07a2,2,0,0,1-4,0V56.06A33.86213,33.86213,0,0,0,67.43,64.6l2.86,2.86a2.00108,2.00108,0,0,1-2.83,2.83L64.6,67.43A33.86213,33.86213,0,0,0,56.06,88h4.07a2,2,0,0,1,0,4H56.06a33.86213,33.86213,0,0,0,8.54,20.57l2.86-2.86a2.00108,2.00108,0,1,1,2.83,2.83l-2.86,2.86A33.86213,33.86213,0,0,0,88,123.94v-4.07a2,2,0,1,1,4,0v4.07a33.86213,33.86213,0,0,0,20.57-8.54l-2.86-2.86a2.00108,2.00108,0,0,1,2.83-2.83l2.86,2.86A33.86213,33.86213,0,0,0,123.94,92h-4.07A2.00591,2.00591,0,0,1,117.87,90ZM102,92H96.71A7.001,7.001,0,1,1,88,83.29V70a2,2,0,0,1,4,0V83.29A7.07729,7.07729,0,0,1,96.71,88H102a2,2,0,0,1,0,4Z"/><path class="cls-4" d="M102,88H96.71A7.07729,7.07729,0,0,0,92,83.29V70a2,2,0,0,0-4,0V83.29A7.001,7.001,0,1,0,96.71,92H102a2,2,0,0,0,0-4ZM90,93a3,3,0,1,1,3-3A3.00879,3.00879,0,0,1,90,93Z"/><rect class="cls-5" height="2" width="54" x="37" y="14"/><path class="cls-5" d="M11,14v2H8a3.99887,3.99887,0,0,0-4,4V18a3.99887,3.99887,0,0,1,4-4Z"/><path class="cls-5" d="M124,18v2a3.99887,3.99887,0,0,0-4-4h-3V14h3A3.99887,3.99887,0,0,1,124,18Z"/><rect class="cls-6" height="2" width="120" x="4" y="34"/><path class="cls-7" d="M109,9v2a5,5,0,0,0-10,0V9a5,5,0,0,1,10,0Z"/><path class="cls-8" d="M109,13v2a5,5,0,0,1-10,0V13a5,5,0,0,0,10,0Z"/><path class="cls-8" d="M29,13v2a5,5,0,0,1-10,0V13a5,5,0,0,0,10,0Z"/><path class="cls-7" d="M29,9v2a5,5,0,0,0-10,0V9A5,5,0,0,1,29,9Z"/><rect class="cls-9" height="2" width="120" x="4" y="28"/><path class="cls-10" d="M48.77,96h-.33c-.1-.67-.18-1.33-.24-2H8a3.99887,3.99887,0,0,1-4-4V88a3.99887,3.99887,0,0,0,4,4H48.2C48.32,93.35,48.52,94.69,48.77,96Z"/><path class="cls-7" d="M70.29,72.29a2.02218,2.02218,0,0,1-2.83,0L64.6,69.43A33.7644,33.7644,0,0,0,56.25,88h-.19A33.86213,33.86213,0,0,1,64.6,67.43l2.86,2.86a2.02218,2.02218,0,0,0,2.83,0,1.70262,1.70262,0,0,0,.31-.41A1.988,1.988,0,0,1,70.29,72.29Z"/><path class="cls-7" d="M88,56.06v2a33.80633,33.80633,0,0,0-19.49,7.62L67.43,64.6A33.86213,33.86213,0,0,1,88,56.06Z"/><path class="cls-7" d="M112.57,64.6l-1.08,1.08A33.80633,33.80633,0,0,0,92,58.06v-2A33.86213,33.86213,0,0,1,112.57,64.6Z"/><path class="cls-7" d="M123.94,88h-.19a33.7644,33.7644,0,0,0-8.35-18.57l-2.86,2.86a2.02215,2.02215,0,0,1-2.83,0,1.988,1.988,0,0,1-.31-2.41,1.70262,1.70262,0,0,0,.31.41,2.02215,2.02215,0,0,0,2.83,0l2.86-2.86A33.86213,33.86213,0,0,1,123.94,88Z"/><path class="cls-8" d="M123.94,92a33.86213,33.86213,0,0,1-8.54,20.57l-2.86-2.86a2.0037,2.0037,0,0,0-2.83,0,1.51864,1.51864,0,0,0-.31.42,1.99834,1.99834,0,0,1,3.14-2.42l2.86,2.86A33.7644,33.7644,0,0,0,123.75,92Z"/><path class="cls-8" d="M112.57,115.4A33.86213,33.86213,0,0,1,92,123.94v-2a33.80633,33.80633,0,0,0,19.49-7.62Z"/><path class="cls-8" d="M88,121.94v2a33.86213,33.86213,0,0,1-20.57-8.54l1.08-1.08A33.80633,33.80633,0,0,0,88,121.94Z"/><path class="cls-8" d="M70.6,110.13a1.51864,1.51864,0,0,0-.31-.42,2.0037,2.0037,0,0,0-2.83,0l-2.86,2.86A33.86213,33.86213,0,0,1,56.06,92h.19a33.7644,33.7644,0,0,0,8.35,18.57l2.86-2.86a1.99834,1.99834,0,0,1,3.14,2.42Z"/><rect class="cls-7" height="2" width="12" x="45" y="45"/><rect class="cls-8" height="2" width="12" x="45" y="55"/><rect class="cls-7" height="2" width="12" x="19" y="71"/><rect class="cls-8" height="2" width="12" x="19" y="81"/><path class="cls-7" d="M52.67,71c-.34.66-.66,1.32-.96,2H45V71Z"/><rect class="cls-7" height="2" width="12" x="71" y="45"/><rect class="cls-7" height="2" width="12" x="97" y="45"/><path class="cls-8" d="M49.02,81c-.16.67-.29,1.33-.41,2H45V81Z"/></svg>