<?xml version="1.0" standalone="no"?>
<!DOCTYPE svg PUBLIC "-//W3C//DTD SVG 20010904//EN"
 "http://www.w3.org/TR/2001/REC-SVG-20010904/DTD/svg10.dtd">
<svg version="1.0" xmlns="http://www.w3.org/2000/svg"
 width="899.000000pt" height="1232.000000pt" viewBox="0 0 899.000000 1232.000000"
 preserveAspectRatio="xMidYMid meet">

<g transform="translate(0.000000,1232.000000) scale(0.100000,-0.100000)"
fill="#000000" stroke="none">
<path d="M0 6160 l0 -6160 4495 0 4495 0 0 6160 0 6160 -4495 0 -4495 0 0
-6160z m4480 4950 c195 -367 223 -411 268 -424 74 -21 46 -25 -276 -40 -78 -4
-102 -2 -99 7 2 7 12 13 23 15 57 8 64 13 64 37 0 14 -14 54 -32 90 l-32 65
-56 0 c-30 0 -99 -3 -152 -7 l-97 -6 -20 -48 c-39 -90 -19 -139 56 -139 21 0
33 -5 33 -14 0 -10 -32 -14 -142 -19 -118 -4 -164 -11 -260 -37 l-116 -32
-173 131 c-168 127 -212 150 -225 117 -3 -8 9 -67 27 -133 39 -144 58 -168
126 -158 24 3 43 2 43 -3 0 -5 -87 -33 -192 -62 -106 -29 -201 -54 -210 -57
-29 -9 -20 17 9 28 40 15 63 39 63 63 0 23 -143 553 -161 598 -13 32 -35 41
-87 36 -75 -6 -31 18 99 55 384 107 485 121 566 79 127 -66 139 -239 23 -320
-22 -15 -39 -31 -39 -37 0 -10 65 -60 242 -187 64 -47 87 -58 118 -58 74 0 94
30 245 370 74 168 146 329 160 359 14 32 28 51 33 45 5 -5 82 -146 171 -314z
m811 240 c106 -16 197 -30 202 -30 4 0 7 -4 7 -10 0 -5 -20 -10 -43 -10 -71 0
-75 -9 -113 -262 -43 -284 -50 -315 -79 -360 -50 -76 -169 -106 -290 -74 -133
37 -214 154 -155 229 25 31 62 41 106 27 59 -20 72 -80 29 -132 -14 -17 -24
-36 -22 -42 2 -6 20 -20 42 -30 34 -17 41 -18 64 -5 38 22 46 47 75 234 71
469 71 440 -7 465 -48 15 -62 30 -29 30 10 0 106 -13 213 -30z m803 -232 c3
-24 22 -194 41 -378 20 -184 40 -352 46 -372 11 -43 60 -88 97 -89 75 -3 87 3
525 254 131 75 240 137 243 137 9 0 2 -66 -46 -396 -57 -391 -59 -430 -30
-467 11 -14 17 -28 12 -31 -10 -6 -335 208 -340 224 -5 15 20 12 42 -5 23 -17
62 -20 71 -5 4 6 13 47 20 91 l12 79 -119 81 c-134 90 -134 90 -210 34 -58
-42 -61 -66 -16 -112 58 -60 20 -47 -104 35 -105 69 -145 88 -278 135 -85 31
-168 60 -183 66 -43 17 -24 31 24 18 58 -14 72 5 64 88 -11 110 10 94 -242
181 l-52 18 -31 -29 c-17 -17 -41 -45 -52 -63 -19 -30 -19 -34 -4 -57 9 -14
30 -32 46 -40 17 -9 30 -20 30 -25 0 -13 10 -16 -120 31 -63 23 -123 43 -132
46 -27 8 -21 23 9 23 57 0 114 45 383 305 151 145 278 264 281 265 4 0 9 -19
13 -42z m-3800 -286 c22 -16 158 -111 301 -211 290 -204 323 -224 368 -220 74
7 36 -21 -225 -164 -37 -20 -72 -37 -78 -37 -19 0 -10 16 20 33 49 29 41 59
-32 112 -34 25 -69 45 -76 45 -17 0 -244 -128 -253 -142 -4 -6 -4 -31 -2 -56
10 -100 38 -127 106 -98 36 15 58 7 34 -11 -6 -6 -47 -29 -89 -52 -43 -23 -91
-49 -107 -59 -40 -22 -48 -11 -20 28 32 43 34 110 15 458 -17 303 -20 402 -10
402 3 0 25 -13 48 -28z m-562 -513 c168 -36 295 -178 306 -343 6 -96 -14 -160
-80 -261 -25 -39 -349 -367 -368 -373 -18 -6 -11 16 15 46 14 17 25 40 25 53
0 18 -63 88 -228 258 -218 224 -230 234 -258 227 -16 -4 -39 -17 -51 -28 -13
-12 -26 -18 -30 -14 -8 8 166 186 283 290 91 80 156 119 235 140 67 18 85 19
151 5z m5929 -176 c90 -98 186 -203 215 -233 28 -30 71 -77 95 -103 l43 -49
-64 -59 c-36 -32 -74 -64 -84 -70 -21 -13 -21 -10 10 71 26 69 14 124 -40 186
l-44 49 -34 -31 c-18 -17 -117 -108 -220 -202 -194 -179 -238 -225 -238 -246
0 -7 11 -30 25 -50 27 -40 29 -46 16 -46 -12 0 -304 320 -298 327 3 3 21 -7
40 -21 54 -42 74 -35 169 52 46 42 154 142 240 221 l157 144 -30 37 c-36 44
-96 80 -136 80 -16 0 -51 -7 -77 -16 -26 -9 -50 -13 -54 -9 -5 5 133 143 144
145 1 0 75 -80 165 -177z m-873 -750 c76 -115 158 -241 181 -281 43 -71 44
-74 44 -166 0 -51 -3 -98 -7 -104 -5 -8 -1 -10 11 -5 15 5 16 4 7 -8 -8 -9
-11 -97 -9 -279 1 -224 -1 -278 -17 -350 -50 -236 -62 -348 -62 -580 1 -228
17 -398 61 -621 13 -68 16 -158 17 -476 1 -215 -1 -390 -5 -387 -4 2 -9 14
-12 26 -3 13 -17 64 -31 113 -47 160 -144 626 -180 865 -63 414 -58 683 19
1032 31 140 111 381 159 477 20 40 36 78 36 83 0 6 -15 31 -34 57 -19 25 -104
152 -190 281 -85 129 -161 244 -168 254 -14 18 -15 18 -58 -9 -141 -89 -396
-195 -458 -190 -31 2 -51 23 -33 34 11 7 11 12 0 29 -10 16 -11 24 -2 33 9 9
8 17 -3 34 -14 21 -12 22 83 60 54 20 137 57 184 81 84 42 292 175 304 194 3
6 10 10 15 10 5 0 71 -93 148 -207z m-4369 148 c159 -118 342 -208 529 -260
173 -49 231 -56 457 -56 228 0 276 6 461 60 194 57 387 148 536 252 l77 54 55
-37 c31 -20 53 -41 49 -47 -3 -5 -2 -7 4 -4 5 3 34 -10 64 -29 40 -27 48 -35
29 -32 -17 2 -26 -2 -28 -15 -3 -16 0 -18 20 -12 21 6 21 5 -6 -18 -20 -16
-26 -26 -17 -31 6 -4 9 -12 5 -17 -3 -6 3 -13 15 -16 29 -7 17 -21 -14 -15
-33 6 -32 -6 1 -18 14 -6 23 -14 20 -19 -3 -5 -21 -2 -40 7 -19 9 -32 20 -29
25 3 6 1 7 -5 3 -7 -4 -17 -4 -24 0 -8 5 -6 10 8 16 15 7 14 7 -6 3 -16 -2
-39 4 -58 15 -18 11 -36 20 -41 20 -5 0 -35 -18 -68 -39 -318 -213 -782 -335
-1152 -303 -276 24 -554 112 -776 246 -67 41 -93 51 -101 43 -6 -7 -63 -88
-126 -182 -63 -93 -154 -228 -203 -298 l-87 -129 35 -76 c125 -270 213 -573
258 -892 19 -136 16 -522 -5 -665 -23 -152 -88 -408 -164 -645 -109 -338 -126
-426 -126 -630 0 -241 48 -427 174 -685 112 -229 240 -405 435 -600 66 -66
161 -149 210 -183 84 -59 305 -175 455 -237 305 -128 906 -468 1196 -677 44
-32 84 -58 87 -58 4 0 28 13 54 29 59 36 104 51 86 29 -7 -7 -10 -28 -8 -46 2
-17 -1 -34 -6 -38 -6 -3 -3 -12 8 -20 12 -9 14 -13 4 -14 -11 0 -10 -5 3 -24
15 -24 15 -26 -17 -47 -17 -12 -53 -37 -78 -56 l-46 -33 -44 33 c-24 19 -99
69 -166 113 -367 238 -749 450 -1098 608 -452 206 -572 282 -782 497 -110 113
-212 236 -281 340 -34 52 -66 99 -70 104 -23 28 -134 252 -167 334 -90 228
-128 417 -127 641 0 212 24 335 132 680 126 402 156 543 169 800 24 441 -78
924 -283 1343 l-43 88 289 435 c159 239 291 434 295 434 3 0 35 -22 72 -49z
m2298 -265 c0 -8 -6 -12 -15 -9 -11 5 -11 7 0 14 7 5 13 9 14 9 0 0 1 -6 1
-14z m28 -36 c3 -6 -1 -7 -9 -4 -18 7 -21 14 -7 14 6 0 13 -4 16 -10z m-130
-206 c127 -67 284 -132 375 -155 27 -7 46 -17 43 -22 -3 -6 -1 -7 4 -4 6 4 53
-4 104 -18 87 -22 90 -24 39 -20 -42 3 -48 2 -25 -4 17 -5 22 -9 13 -10 -21
-1 -24 -17 -5 -24 9 -3 9 -8 -3 -21 -12 -16 -12 -20 1 -30 26 -20 59 -115 59
-172 0 -63 39 -220 58 -233 14 -10 42 -128 42 -178 1 -52 34 -162 63 -205 25
-36 20 -104 -7 -100 -17 3 -17 1 3 -27 13 -17 31 -31 42 -31 10 0 19 -4 19
-10 0 -5 -4 -10 -10 -10 -5 0 -10 -16 -10 -35 0 -22 -6 -38 -15 -41 -20 -8
-19 -24 1 -24 8 0 13 4 10 9 -3 5 6 9 19 9 20 0 23 -3 13 -12 -7 -6 -11 -10
-9 -9 2 2 10 -2 17 -8 10 -9 15 -7 20 5 3 9 13 16 22 16 13 0 11 -4 -6 -16
-12 -8 -20 -19 -17 -24 9 -15 -89 18 -100 33 -5 8 -15 12 -22 10 -14 -5 -240
103 -328 157 -36 22 -68 40 -71 40 -11 0 -209 145 -287 211 -45 38 -86 69 -90
69 -13 0 1 -38 49 -133 105 -210 239 -349 479 -499 50 -31 113 -67 140 -80
105 -50 119 -59 104 -70 -11 -8 -10 -9 4 -4 21 7 91 -36 79 -49 -4 -5 -1 -5 6
-1 18 11 95 -59 99 -89 4 -25 -11 -35 -20 -15 -3 6 -4 5 -3 -2 2 -7 13 -12 26
-10 12 1 29 -3 37 -9 7 -7 16 -9 19 -7 3 3 -9 16 -26 28 -17 12 -29 25 -25 28
10 11 64 -50 58 -66 -5 -11 -2 -14 10 -9 9 3 17 2 17 -3 0 -6 -4 -10 -10 -10
-15 0 -12 -26 4 -43 14 -14 15 -26 3 -57 -3 -8 -8 -32 -11 -52 -3 -29 -1 -38
10 -38 10 0 14 -11 13 -37 0 -31 -2 -34 -9 -18 -8 19 -9 19 -9 -2 -1 -13 5
-23 13 -23 16 0 26 -21 26 -55 0 -15 7 -26 20 -30 11 -3 20 -10 20 -15 0 -5
-6 -7 -14 -4 -8 3 -17 1 -21 -5 -10 -16 4 -51 21 -51 9 0 14 -11 14 -32 0 -17
5 -47 10 -65 6 -18 15 -50 22 -70 6 -21 14 -65 19 -98 9 -80 32 -137 58 -147
27 -10 27 -22 0 -15 -15 4 -19 2 -15 -10 3 -8 6 -23 6 -34 0 -11 10 -24 23
-29 14 -6 -3 -7 -53 -3 -85 6 -204 -15 -251 -44 -16 -10 -167 -103 -337 -206
-169 -104 -318 -197 -332 -206 -14 -9 -61 -39 -105 -65 -44 -26 -90 -54 -102
-63 -39 -27 -25 0 39 78 185 222 408 385 691 503 34 14 37 18 27 36 -6 11 -17
20 -25 20 -22 0 -244 -115 -320 -166 -178 -119 -334 -265 -448 -418 l-52 -69
-20 28 c-179 250 -408 437 -684 561 -109 49 -144 57 -148 34 -3 -11 12 -21 49
-34 193 -69 433 -229 593 -397 64 -68 161 -189 150 -189 -8 0 -143 82 -826
498 -108 66 -123 72 -202 83 -65 9 -103 9 -167 0 -81 -12 -190 -47 -190 -61 0
-7 152 -104 418 -266 62 -38 154 -95 205 -126 51 -31 105 -65 122 -74 16 -9
176 -108 356 -220 180 -112 333 -204 340 -204 11 0 136 75 484 290 77 48 235
144 350 215 116 70 244 149 285 174 42 25 84 51 95 58 59 36 125 73 131 73 3
0 -1 -7 -10 -15 -8 -8 -19 -15 -25 -15 -6 0 -11 -4 -11 -10 0 -14 12 -12 38 6
12 8 22 12 22 9 0 -9 -27 -35 -37 -35 -16 0 -6 -57 15 -78 16 -16 22 -18 26
-6 3 8 11 14 17 14 21 0 -19 -36 -74 -65 -28 -16 -54 -31 -57 -35 -3 -4 -32
-23 -65 -42 -33 -19 -199 -120 -370 -223 -574 -347 -806 -485 -817 -485 -10 0
-136 72 -323 185 -38 24 -250 149 -470 280 -220 131 -416 248 -435 260 -87 56
-413 248 -429 252 -11 3 -41 -15 -79 -47 -34 -29 -62 -53 -62 -55 0 -2 39 -26
88 -53 94 -53 462 -266 822 -475 124 -72 277 -160 340 -197 419 -242 510 -296
510 -301 0 -3 -66 -9 -147 -13 -434 -19 -890 -137 -1285 -331 l-138 -67 -62
50 c-35 28 -97 85 -138 129 -333 346 -525 750 -546 1149 -10 173 17 334 105
635 128 436 164 661 165 1019 1 383 -42 662 -160 1038 l-45 143 47 72 c26 40
81 123 121 184 l74 113 77 -39 c96 -48 308 -125 415 -151 284 -69 639 -68 909
0 192 50 408 136 533 214 22 14 43 26 47 26 4 0 64 -30 133 -66z m900 -1414
c-3 -5 -10 -10 -16 -10 -5 0 -9 5 -9 10 0 6 7 10 16 10 8 0 12 -4 9 -10z m135
-480 c0 -5 -5 -10 -11 -10 -5 0 -7 5 -4 10 3 6 8 10 11 10 2 0 4 -4 4 -10z
m50 -108 c0 -5 -7 -17 -16 -28 -14 -17 -15 -17 -10 -1 3 10 6 23 6 28 0 5 5 9
10 9 6 0 10 -4 10 -8z m67 -274 c-3 -8 -6 -5 -6 6 -1 11 2 17 5 13 3 -3 4 -12
1 -19z m0 -300 c-3 -8 -6 -5 -6 6 -1 11 2 17 5 13 3 -3 4 -12 1 -19z m30 -125
c-3 -10 -5 -2 -5 17 0 19 2 27 5 18 2 -10 2 -26 0 -35z m110 -135 c-3 -8 -6
-5 -6 6 -1 11 2 17 5 13 3 -3 4 -12 1 -19z m31 -118 c-7 -10 -14 -17 -17 -15
-4 4 18 35 25 35 2 0 -1 -9 -8 -20z m-28 -90 c0 -5 -7 -10 -16 -10 -8 0 -12 5
-9 10 3 6 10 10 16 10 5 0 9 -4 9 -10z m20 -40 c-8 -5 -18 -6 -24 -3 -5 4 -1
10 10 13 24 9 34 2 14 -10z m40 -4 c0 -3 -4 -8 -10 -11 -5 -3 -10 -1 -10 4 0
6 5 11 10 11 6 0 10 -2 10 -4z m35 -234 c-3 -3 -11 0 -18 7 -9 10 -8 11 6 5
10 -3 15 -9 12 -12z m-40 -2 c-4 -6 -2 -16 3 -23 12 -15 7 -66 -7 -80 -15 -15
-14 -27 4 -27 8 0 15 -9 15 -19 0 -11 6 -26 13 -33 18 -19 47 -130 47 -183 0
-58 28 -145 46 -145 11 0 14 -18 14 -72 1 -84 13 -158 28 -167 11 -7 42 -94
63 -178 7 -29 15 -50 19 -48 9 5 40 -32 32 -39 -3 -3 -14 1 -24 11 -16 14 -18
14 -18 0 0 -8 6 -18 13 -21 6 -3 1 -4 -13 -3 -14 1 -24 8 -23 15 2 6 -2 12 -7
12 -15 0 -12 -9 9 -36 11 -15 22 -20 26 -14 3 5 14 10 23 10 15 -1 14 -3 -3
-16 -11 -8 -27 -20 -35 -27 -29 -24 -44 -31 -35 -17 5 9 4 11 -3 6 -7 -4 -12
-13 -12 -19 0 -13 -54 -47 -75 -47 -7 0 -54 20 -104 45 -354 175 -830 299
-1234 321 -103 5 -126 9 -115 19 7 7 74 48 148 90 74 43 160 93 190 110 260
151 716 413 760 438 30 17 72 41 92 54 21 13 40 23 44 23 3 0 19 9 36 21 16
12 32 19 34 16 3 -3 14 3 25 14 21 21 34 26 24 9z m1051 -478 l-2 -247 -37
-78 c-95 -202 -280 -438 -447 -571 -118 -95 -397 -248 -444 -244 -25 2 -27 5
-31 59 0 9 -7 24 -14 33 -12 14 -11 16 5 9 10 -3 23 -11 27 -17 5 -6 5 0 2 13
-5 16 -4 21 4 17 6 -4 11 -2 11 4 0 7 -8 9 -21 5 -18 -6 -20 -4 -14 15 6 20 5
21 -17 10 -55 -29 3 11 67 45 260 140 361 217 490 375 158 194 326 510 395
743 13 42 24 77 25 77 1 0 1 -111 1 -248z m-2186 -477 c380 -28 726 -94 1058
-202 179 -59 127 -73 -65 -18 -204 58 -528 118 -803 147 -164 17 -751 17 -920
0 -286 -29 -578 -82 -830 -151 -129 -35 -230 -70 -207 -71 5 0 45 9 90 21 143
36 467 97 632 118 299 38 426 45 755 45 340 0 469 -8 785 -50 186 -24 574 -97
603 -113 10 -6 -4 -17 -49 -41 -92 -47 -189 -100 -394 -215 -208 -116 -574
-341 -792 -487 -90 -59 -165 -108 -167 -108 -3 0 -67 42 -143 93 -335 227
-696 426 -1103 608 -84 38 -222 108 -230 118 -3 3 -18 13 -34 21 -16 8 -30 19
-30 23 -2 20 380 133 594 177 267 55 405 73 710 93 125 9 366 5 540 -8z m1228
-690 c-3 -3 -9 2 -12 12 -6 14 -5 15 5 6 7 -7 10 -15 7 -18z m-23 -5 c3 -5 4
-10 1 -10 -2 0 -12 -3 -20 -6 -12 -5 -15 -2 -10 10 7 18 20 21 29 6z m-1345
-610 c-8 -5 -19 -10 -25 -10 -5 0 -3 5 5 10 8 5 20 10 25 10 6 0 3 -5 -5 -10z
m-1874 -165 c38 -13 115 -45 170 -70 355 -167 527 -221 1009 -315 282 -55 611
-74 855 -49 74 7 159 14 188 14 28 0 52 3 52 8 0 4 6 7 14 7 9 0 12 -7 9 -21
-5 -16 -11 -19 -32 -15 l-26 6 23 -19 c24 -21 29 -46 10 -55 -10 -5 -10 -7 0
-12 20 -10 15 -44 -8 -44 -11 0 -20 -4 -20 -10 0 -11 12 -13 45 -11 14 1 16
-1 7 -7 -8 -5 -10 -21 -7 -44 4 -26 0 -45 -15 -70 -14 -24 -20 -28 -20 -14 0
10 8 25 17 32 10 7 15 16 10 20 -13 13 -36 -30 -38 -71 0 -22 -2 -51 -4 -65
-5 -45 47 -113 70 -92 5 4 5 1 1 -5 -4 -8 -2 -13 6 -13 9 0 9 -3 -2 -10 -8 -5
-22 -9 -30 -9 -10 0 -9 3 4 8 16 6 17 9 5 13 -8 3 -23 0 -34 -8 -17 -13 -17
-14 -1 -14 9 0 15 -4 12 -9 -3 -4 7 -7 22 -5 15 2 19 1 10 -2 -13 -4 -18 -16
-18 -45 0 -24 -5 -39 -12 -39 -10 0 -9 -3 1 -9 17 -11 -1 -23 -22 -15 -8 3
-18 0 -22 -7 -6 -9 5 -11 46 -6 30 3 45 3 34 0 -11 -2 -25 -11 -31 -19 -19
-24 -278 -55 -509 -61 -459 -12 -820 55 -1435 265 -63 22 -186 72 -274 112
-196 89 -284 111 -377 91 -91 -18 -155 -55 -230 -131 -64 -64 -98 -127 -84
-150 4 -6 27 -21 53 -34 127 -63 268 -90 397 -75 207 23 247 23 302 -1 101
-43 212 -205 200 -292 -8 -61 -35 -82 -135 -107 -117 -28 -240 -28 -341 0
-166 47 -378 148 -638 307 l-142 86 -1 278 c0 184 3 278 10 278 5 0 10 7 10
16 0 9 -5 12 -11 8 -7 -4 -10 -1 -7 7 3 8 13 13 23 11 10 -2 14 1 10 7 -3 6
-13 11 -21 11 -8 0 -14 4 -14 10 0 5 -8 7 -17 4 -10 -3 -7 1 6 9 21 12 21 15
6 21 -10 3 -15 9 -12 12 9 10 127 -58 120 -69 -3 -6 -1 -7 6 -3 6 4 44 -17 88
-48 43 -31 83 -56 90 -56 10 0 13 49 13 225 l0 224 58 39 c183 124 388 159
578 97z m-981 -403 c-3 -3 -11 0 -18 7 -9 10 -8 11 6 5 10 -3 15 -9 12 -12z
m3398 11 c-7 -2 -19 -2 -25 0 -7 3 -2 5 12 5 14 0 19 -2 13 -5z m2064 1 c-3
-3 -12 -4 -19 -1 -8 3 -5 6 6 6 11 1 17 -2 13 -5z m-55 -20 c-12 -8 -20 -20
-17 -25 4 -5 3 -14 -1 -21 -11 -17 -14 -162 -5 -212 4 -22 3 -96 -1 -164 -6
-88 -5 -129 3 -145 9 -16 9 -22 0 -25 -14 -5 -14 -39 1 -48 7 -5 8 -3 3 6 -5
9 -4 11 3 6 17 -10 15 -26 -3 -26 -8 0 -15 -5 -15 -11 0 -6 -7 -9 -15 -5 -8 3
-14 1 -12 -3 1 -5 -1 -9 -6 -10 -4 0 -17 -10 -30 -22 -93 -87 -562 -320 -727
-360 -127 -31 -358 -5 -420 47 -47 40 -49 80 -7 168 44 94 102 157 169 186 46
20 63 22 138 16 331 -25 399 -19 551 51 76 35 80 38 73 62 -3 14 -8 98 -10
185 l-4 159 103 69 c120 82 187 123 187 113 0 -3 10 1 22 9 12 9 27 16 32 16
6 0 0 -7 -12 -16z m-2102 -351 c-11 -17 -11 -17 -6 0 3 10 6 24 7 30 0 9 2 9
5 0 3 -7 0 -20 -6 -30z m28 -70 c-6 -7 -14 -10 -19 -7 -15 9 -10 20 10 20 15
0 17 -3 9 -13z m12 -227 c0 -2 -7 -6 -15 -10 -8 -3 -15 -1 -15 4 0 6 7 10 15
10 8 0 15 -2 15 -4z m-27 -33 c-7 -2 -21 -2 -30 0 -10 3 -4 5 12 5 17 0 24 -2
18 -5z m-990 -283 c11 0 17 -8 17 -25 l0 -24 -25 25 c-20 20 -28 23 -45 14
-34 -18 -25 -33 38 -71 45 -26 60 -61 39 -92 -18 -27 -46 -35 -100 -29 -33 4
-37 7 -37 33 0 34 11 38 25 7 14 -29 48 -40 72 -23 24 18 9 43 -39 69 -43 22
-63 58 -48 86 14 26 41 41 65 35 11 -3 28 -5 38 -5z m585 -6 c31 -22 28 -62
-8 -104 -38 -45 -37 -53 5 -48 36 4 39 1 29 -26 -5 -12 -21 -16 -66 -16 l-60
0 31 39 c42 53 57 97 40 117 -8 10 -21 13 -36 9 -13 -3 -23 -1 -23 4 0 12 40
41 55 41 6 0 21 -7 33 -16z m167 -9 c24 -23 30 -52 25 -115 -5 -64 -54 -92
-97 -56 -23 20 -26 31 -27 85 -1 57 2 65 27 87 35 30 42 30 72 -1z m147 8 c27
-24 22 -64 -12 -103 -38 -45 -37 -53 5 -48 32 4 36 2 33 -16 -3 -18 -11 -21
-66 -24 l-64 -3 36 47 c20 26 39 58 42 71 8 32 -13 56 -43 48 -29 -7 -30 9 -1
29 29 20 47 20 70 -1z m162 1 c18 -17 20 -32 7 -53 -6 -10 -5 -22 5 -35 20
-29 17 -59 -8 -83 -34 -31 -108 -36 -108 -7 0 12 6 15 23 9 46 -14 62 -11 65
15 3 17 -4 31 -25 47 -15 13 -23 23 -16 23 7 0 18 10 24 22 9 18 8 24 -6 34
-9 7 -23 10 -31 7 -8 -3 -14 0 -14 6 0 11 33 29 57 30 6 1 19 -6 27 -15z
m-1214 -19 l0 -25 -20 20 c-11 11 -31 20 -45 20 -22 0 -25 -4 -25 -40 0 -44 5
-48 32 -23 17 15 18 14 18 -28 -1 -39 -2 -42 -14 -26 -22 29 -36 20 -36 -23 0
-37 2 -40 27 -40 15 0 37 10 50 22 l23 21 0 -26 c0 -27 0 -27 -77 -27 l-78 0
4 85 c2 58 -1 90 -9 100 -11 13 -2 15 69 15 80 0 81 0 81 -25z m400 3 c0 -20
-1 -20 -18 -5 -10 10 -26 17 -35 17 -15 0 -17 -12 -17 -83 0 -51 5 -88 12 -95
9 -9 3 -12 -27 -12 l-40 0 3 95 c3 79 1 95 -12 95 -8 0 -22 -7 -30 -16 -15
-14 -16 -14 -16 5 0 20 6 21 90 21 85 0 90 -1 90 -22z m140 -158 c0 -21 -33
-29 -45 -10 -9 15 4 30 26 30 12 0 19 -7 19 -20z m-3056 -629 c3 -5 -3 -11
-14 -14 -19 -5 -20 -14 -20 -161 0 -153 1 -157 23 -166 15 -6 -5 -9 -68 -9
-49 1 -83 3 -75 6 27 11 30 26 30 176 0 141 -1 149 -20 154 -11 3 -20 9 -20
14 0 12 157 12 164 0z m164 -9 c9 -9 48 -57 86 -105 38 -48 71 -87 73 -87 1 0
3 41 3 91 0 82 -2 91 -20 96 -36 9 -21 20 30 22 53 1 61 -4 33 -25 -16 -11
-19 -35 -23 -179 l-5 -166 -114 140 c-63 78 -118 141 -123 141 -9 0 -11 -193
-2 -226 3 -12 15 -26 27 -32 18 -9 11 -11 -38 -11 -57 -1 -58 0 -37 15 21 14
22 22 22 159 0 134 -2 146 -20 157 -33 21 -23 28 35 28 39 0 60 -5 73 -18z
m590 -29 c2 -26 -1 -43 -7 -43 -6 0 -11 5 -11 10 0 21 -41 50 -70 50 l-30 0 0
-155 c0 -152 1 -156 23 -165 15 -6 -5 -9 -68 -9 -49 1 -83 3 -75 6 27 11 30
26 30 176 l0 147 -30 0 c-29 0 -70 -29 -70 -50 0 -5 -4 -10 -10 -10 -11 0 -14
73 -3 84 4 3 77 5 162 4 l156 -3 3 -42z m328 33 c3 -7 4 -33 2 -57 l-4 -44
-13 33 c-15 38 -43 52 -102 52 l-39 0 0 -70 c0 -49 4 -70 13 -70 21 0 36 15
51 50 15 34 15 33 15 -60 0 -89 -1 -93 -14 -63 -12 27 -41 53 -60 53 -3 0 -5
-33 -3 -72 l3 -73 40 -3 c50 -3 83 14 112 57 22 33 23 33 23 9 0 -14 -3 -40
-6 -57 l-6 -31 -152 1 c-83 0 -144 3 -136 6 27 11 30 26 30 176 0 141 -1 149
-20 154 -53 14 -7 23 120 23 111 0 142 -3 146 -14z m287 5 c64 -11 97 -42 97
-93 0 -39 -34 -88 -60 -88 -15 0 4 -33 62 -107 l48 -63 -53 0 -53 0 -54 77
c-30 42 -61 78 -67 81 -10 3 -13 -15 -13 -67 0 -65 2 -72 23 -81 15 -6 -4 -9
-68 -9 -64 0 -83 3 -67 9 21 9 22 13 22 166 0 147 -1 156 -20 161 -74 20 97
31 203 14z m460 -3 c32 -10 41 -10 45 0 10 31 22 6 22 -48 0 -33 -4 -60 -10
-60 -5 0 -10 6 -10 13 -1 6 -11 24 -23 38 -59 70 -153 65 -191 -9 -34 -68 -27
-193 14 -237 25 -27 76 -41 109 -30 17 5 21 14 21 54 0 39 -4 52 -22 64 -22
15 -18 16 67 16 84 1 88 0 67 -15 -18 -12 -22 -25 -22 -65 0 -45 -3 -50 -27
-60 -15 -6 -54 -13 -88 -16 -142 -13 -235 59 -235 180 0 142 129 221 283 175z
m357 3 c103 -20 124 -129 34 -179 -16 -9 -13 -16 28 -74 92 -129 100 -125 199
96 41 91 76 165 79 166 3 0 36 -71 74 -157 39 -87 79 -168 90 -180 l19 -23
-84 1 c-46 0 -77 3 -69 6 26 10 29 25 12 60 -15 32 -17 33 -77 33 -57 0 -63
-2 -74 -26 -14 -31 -7 -61 17 -67 9 -3 -35 -5 -99 -6 l-115 -1 -58 80 c-31 44
-61 80 -67 80 -5 0 -9 -32 -9 -70 0 -64 2 -72 23 -80 15 -6 -4 -9 -68 -9 -64
0 -83 3 -67 9 21 9 22 13 22 163 0 149 -1 155 -22 170 -22 15 -17 16 72 16 52
0 115 -4 140 -8z m836 -5 c3 -8 4 -31 2 -52 -3 -32 -5 -36 -12 -19 -17 38 -39
55 -73 55 l-33 0 0 -143 c0 -145 5 -168 40 -180 8 -3 -28 -5 -80 -6 -66 0 -88
3 -73 9 31 12 34 35 31 185 -3 116 -5 130 -21 133 -35 7 -63 -7 -79 -40 l-17
-33 0 46 c-1 25 2 48 5 52 4 3 73 6 156 6 118 1 150 -2 154 -13z m332 -35 c2
-24 -2 -49 -7 -54 -8 -8 -11 -6 -11 6 0 10 -11 29 -25 42 -19 20 -34 25 -75
25 l-50 0 0 -64 c0 -36 4 -68 10 -71 17 -10 47 13 61 47 l13 33 4 -47 c2 -27
2 -69 0 -95 l-4 -48 -13 33 c-14 34 -44 57 -61 47 -11 -7 -14 -104 -4 -129 4
-11 19 -16 44 -16 57 0 88 15 111 55 12 20 23 34 25 32 2 -2 1 -27 -3 -55 l-6
-52 -156 1 c-86 0 -149 3 -141 6 34 12 40 36 40 166 0 129 -8 167 -36 167 -8
0 -12 5 -9 10 4 7 59 10 148 8 l142 -3 3 -44z m334 17 c113 -63 109 -252 -7
-308 -34 -17 -61 -20 -156 -19 -63 0 -107 3 -99 6 35 12 40 35 40 169 0 140
-4 164 -26 164 -8 0 -14 5 -14 11 0 9 30 10 110 6 90 -5 118 -10 152 -29z
m444 22 c19 -7 30 -7 40 1 12 10 14 2 13 -47 0 -50 -2 -56 -12 -39 -42 68 -99
93 -142 62 -34 -26 -13 -59 69 -105 87 -49 106 -72 106 -123 0 -70 -65 -118
-143 -104 -23 4 -57 7 -74 7 l-33 -1 0 60 c0 38 4 58 10 54 6 -3 10 -13 10
-20 0 -8 16 -30 35 -50 42 -42 91 -48 120 -15 30 33 10 69 -57 105 -102 55
-129 95 -108 161 19 56 95 81 166 54z m397 -2 c32 -10 41 -10 45 0 10 30 22 7
22 -41 0 -65 -9 -78 -26 -37 -15 34 -68 70 -104 70 -48 0 -88 -35 -104 -91
-19 -62 -19 -64 -5 -128 15 -70 48 -101 110 -101 36 0 55 6 77 25 34 29 42 31
42 11 0 -8 -17 -25 -37 -38 -31 -19 -52 -23 -110 -23 -65 1 -76 4 -109 31 -80
64 -98 163 -45 245 49 78 142 107 244 77z m282 2 c3 -5 -1 -10 -10 -10 -22 0
-37 -45 -33 -99 l3 -46 60 0 60 0 3 68 c3 62 1 69 -18 74 -46 12 -15 23 65 23
80 0 111 -11 65 -23 -19 -5 -20 -14 -20 -161 0 -153 1 -157 23 -166 16 -6 -4
-9 -68 -9 -84 -1 -88 0 -67 15 19 13 22 24 22 85 l0 70 -62 -3 c-60 -3 -61 -4
-65 -33 -8 -56 7 -115 30 -125 15 -6 -6 -9 -68 -9 -84 -1 -88 0 -67 15 21 14
22 22 22 154 0 146 -4 170 -26 170 -8 0 -14 5 -14 10 0 6 33 10 79 10 44 0 83
-4 86 -10z m552 -22 c50 -33 76 -86 75 -154 0 -59 -11 -85 -55 -132 -60 -63
-181 -68 -252 -10 -46 39 -65 81 -65 149 0 70 34 129 92 158 60 31 150 26 205
-11z m403 9 c57 -30 90 -90 90 -161 0 -129 -116 -212 -247 -177 -84 23 -146
126 -128 213 25 123 170 186 285 125z m294 14 c3 -5 -3 -11 -14 -14 -20 -5
-20 -12 -18 -159 l3 -153 53 -3 c47 -3 56 0 82 27 17 16 30 39 30 50 0 12 5
21 11 21 8 0 10 -13 5 -37 -3 -21 -6 -48 -6 -60 0 -23 -1 -23 -157 -23 -145 0
-156 1 -135 16 21 14 22 21 22 166 0 141 -1 150 -20 155 -11 3 -20 9 -20 14 0
12 157 12 164 0z m380 -2 c20 -9 29 -9 41 1 13 11 15 5 15 -44 0 -36 -4 -55
-10 -51 -5 3 -10 12 -10 20 0 22 -59 65 -90 65 -30 0 -60 -22 -60 -45 0 -20
24 -41 91 -76 73 -39 99 -70 99 -118 0 -84 -86 -132 -179 -100 -23 8 -35 8
-45 0 -20 -17 -26 -3 -26 61 0 58 13 78 24 36 18 -72 110 -113 150 -69 31 34
12 70 -56 106 -72 38 -105 70 -113 106 -8 35 18 92 48 107 30 14 90 15 121 1z"/>
<path d="M3265 11205 c-5 -1 -36 -8 -68 -15 -69 -14 -68 0 -18 -180 46 -169
41 -161 94 -145 24 7 63 23 87 35 91 46 102 175 21 260 -21 22 -47 40 -59 40
-11 0 -26 2 -34 4 -7 3 -17 3 -23 1z"/>
<path d="M4175 11034 c-27 -64 -51 -120 -53 -125 -2 -5 51 -9 117 -9 90 0 121
3 121 13 0 17 -115 230 -126 234 -5 2 -31 -49 -59 -113z"/>
<path d="M5810 10835 c-52 -52 -92 -96 -89 -98 6 -6 170 -65 202 -73 25 -6 28
-4 23 17 -3 13 -7 60 -11 104 -7 96 -15 145 -24 145 -3 0 -49 -43 -101 -95z"/>
<path d="M6708 10422 c-65 -37 -118 -69 -118 -72 0 -3 45 -36 100 -73 66 -44
102 -63 105 -55 8 24 37 247 33 257 -1 6 -56 -20 -120 -57z"/>
<path d="M2300 10549 c0 -83 13 -239 20 -239 8 0 210 111 210 115 0 2 -46 36
-102 76 -57 40 -109 77 -115 82 -10 7 -13 -1 -13 -34z"/>
<path d="M1435 10177 c-16 -8 -50 -33 -75 -55 l-45 -41 117 -118 c64 -65 167
-171 230 -236 62 -64 119 -117 125 -117 25 0 92 72 109 116 22 58 14 118 -27
195 -40 75 -154 188 -231 229 -70 38 -155 49 -203 27z"/>
<path d="M6098 9283 c6 -2 18 -2 25 0 6 3 1 5 -13 5 -14 0 -19 -2 -12 -5z"/>
<path d="M4607 9448 c-8 -5 -5 -8 8 -8 11 0 27 5 35 10 12 7 10 9 -8 7 -13 -1
-28 -5 -35 -9z"/>
<path d="M4631 9404 c0 -11 3 -14 6 -6 3 7 2 16 -1 19 -3 4 -6 -2 -5 -13z"/>
<path d="M4618 9353 c6 -3 10 -9 6 -14 -8 -14 2 -11 14 4 8 10 6 13 -11 14
-12 0 -16 -1 -9 -4z"/>
<path d="M4612 3391 c-10 -6 -10 -10 2 -20 10 -9 16 -9 21 -1 10 16 -7 31 -23
21z"/>
<path d="M4620 3235 c-8 -9 -8 -15 -2 -15 12 0 26 19 19 26 -2 2 -10 -2 -17
-11z"/>
<path d="M4580 3215 c0 -8 2 -15 4 -15 2 0 6 7 10 15 3 8 1 15 -4 15 -6 0 -10
-7 -10 -15z"/>
<path d="M5068 8833 c7 -3 16 -2 19 1 4 3 -2 6 -13 5 -11 0 -14 -3 -6 -6z"/>
<path d="M5058 8803 c7 -3 16 -2 19 1 4 3 -2 6 -13 5 -11 0 -14 -3 -6 -6z"/>
<path d="M5100 8800 c-9 -6 -10 -10 -3 -10 6 0 15 5 18 10 8 12 4 12 -15 0z"/>
<path d="M4726 8701 c-17 -45 -40 -61 -85 -61 -44 0 -46 -15 -7 -50 33 -31 34
-34 29 -87 -4 -32 -2 -54 3 -51 88 42 86 42 128 19 22 -12 43 -18 47 -14 5 5
4 26 -1 48 -9 38 -7 42 25 75 19 20 35 41 35 47 0 6 -22 13 -50 17 -47 6 -50
9 -69 51 -11 25 -24 45 -29 45 -6 0 -17 -18 -26 -39z"/>
<path d="M4500 8676 c-170 -125 -156 -389 26 -477 39 -18 58 -21 128 -17 98 5
150 30 215 105 43 48 48 71 15 64 -10 -2 -51 -4 -89 -4 -112 -2 -194 49 -235
146 -22 51 -23 105 -4 190 8 35 -1 34 -56 -7z"/>
<path d="M5160 8650 c0 -5 5 -10 10 -10 6 0 10 5 10 10 0 6 -4 10 -10 10 -5 0
-10 -4 -10 -10z"/>
<path d="M4455 8099 c-235 -202 -481 -349 -795 -478 -159 -65 -229 -105 -322
-185 -94 -80 -162 -174 -196 -269 -34 -98 -42 -290 -18 -434 18 -103 80 -305
115 -370 l21 -38 -6 95 c-8 120 11 316 41 437 63 247 231 426 551 586 61 31
158 87 215 125 198 132 318 266 417 461 72 144 70 149 -23 70z"/>
<path d="M4179 7342 c-64 -114 -148 -263 -187 -332 l-70 -125 12 -75 12 -75
21 40 c11 22 60 126 108 230 48 105 120 262 161 350 69 151 84 195 67 195 -5
0 -60 -93 -124 -208z"/>
<path d="M4760 7532 c0 -11 15 -53 34 -94 42 -89 149 -324 179 -393 72 -163
144 -310 153 -310 5 0 12 35 17 78 l7 77 -42 78 c-23 42 -61 110 -85 149 -24
40 -43 75 -43 77 0 4 -16 32 -111 196 -20 36 -48 85 -62 110 -27 49 -47 62
-47 32z"/>
<path d="M4400 7462 c-5 -2 -10 -8 -10 -13 0 -5 62 -10 138 -11 l137 -2 -139
-6 c-99 -3 -141 -9 -144 -17 -3 -10 33 -13 157 -13 149 0 174 4 154 24 -4 4
-8 15 -8 24 0 15 -15 17 -137 17 -76 0 -142 -1 -148 -3z"/>
<path d="M4360 7365 c0 -13 26 -15 175 -15 149 0 175 2 175 15 0 13 -26 15
-175 15 -149 0 -175 -2 -175 -15z"/>
<path d="M4340 7315 c0 -13 28 -15 201 -15 156 0 200 3 197 13 -4 9 -55 13
-201 15 -171 2 -197 0 -197 -13z"/>
<path d="M4463 7273 c-118 -3 -143 -6 -143 -18 0 -13 31 -15 205 -15 113 0
208 0 213 0 4 0 7 8 7 18 0 19 -25 21 -282 15z"/>
<path d="M4312 7183 c3 -17 22 -18 228 -18 206 0 225 1 228 18 3 16 -13 17
-228 17 -215 0 -231 -1 -228 -17z"/>
<path d="M5560 7160 c-9 -6 -10 -10 -3 -10 6 0 15 5 18 10 8 12 4 12 -15 0z"/>
<path d="M5575 7142 c-12 -11 -19 -26 -17 -41 3 -18 8 -22 28 -18 17 3 24 0
24 -12 0 -13 2 -13 9 -2 9 15 -20 51 -41 51 -6 0 -3 6 8 14 10 8 17 17 14 19
-3 3 -14 -2 -25 -11z"/>
<path d="M4295 7120 c-16 -26 15 -30 251 -30 228 0 245 1 242 18 -3 16 -24 17
-245 20 -156 1 -244 -1 -248 -8z"/>
<path d="M4272 7003 c3 -17 23 -18 273 -18 233 0 270 2 270 15 0 13 -38 15
-273 18 -257 2 -273 1 -270 -15z"/>
<path d="M4234 6879 c-3 -6 0 -15 7 -20 8 -5 146 -9 307 -9 285 0 292 0 292
20 0 20 -7 20 -299 20 -209 0 -302 -3 -307 -11z"/>
<path d="M4204 6746 c-3 -8 -3 -20 1 -26 4 -6 118 -10 341 -10 l335 0 -3 23
-3 22 -333 3 c-285 2 -333 0 -338 -12z"/>
<path d="M4177 6573 c-4 -3 -7 -19 -7 -35 l0 -28 374 0 373 0 -6 33 -7 32
-360 3 c-198 1 -363 -1 -367 -5z"/>
<path d="M4113 6338 c-14 -18 -36 -105 -30 -115 3 -4 211 -8 464 -8 402 0 458
2 455 15 -2 8 -9 38 -16 65 l-13 50 -425 3 c-333 2 -427 -1 -435 -10z"/>
<path d="M5830 5960 c0 -5 5 -10 10 -10 6 0 10 5 10 10 0 6 -4 10 -10 10 -5 0
-10 -4 -10 -10z"/>
<path d="M5715 5940 c3 -5 8 -10 11 -10 2 0 4 5 4 10 0 6 -5 10 -11 10 -5 0
-7 -4 -4 -10z"/>
<path d="M5857 5903 c9 -7 22 -13 27 -13 6 0 5 4 -3 9 -11 7 -11 9 0 14 8 2 2
4 -14 3 -24 -1 -25 -2 -10 -13z"/>
<path d="M5940 5675 c0 -8 5 -15 10 -15 6 0 10 7 10 15 0 8 -4 15 -10 15 -5 0
-10 -7 -10 -15z"/>
<path d="M5898 5653 c7 -3 16 -2 19 1 4 3 -2 6 -13 5 -11 0 -14 -3 -6 -6z"/>
<path d="M6060 5110 c0 -5 5 -10 10 -10 6 0 10 5 10 10 0 6 -4 10 -10 10 -5 0
-10 -4 -10 -10z"/>
<path d="M6141 4638 c-14 -23 -14 -23 8 -4 22 20 25 26 13 26 -4 0 -13 -10
-21 -22z"/>
<path d="M6120 4140 c-9 -6 -10 -10 -3 -10 6 0 15 5 18 10 8 12 4 12 -15 0z"/>
<path d="M6085 4110 c-3 -5 1 -10 10 -10 9 0 13 5 10 10 -3 6 -8 10 -10 10 -2
0 -7 -4 -10 -10z"/>
<path d="M2663 3033 c1 -50 -61 -194 -85 -201 -19 -5 -24 -17 -10 -26 5 -3 32
-8 60 -12 43 -5 52 -4 52 9 0 8 -5 17 -10 19 -7 2 -6 17 3 43 15 43 52 61 63
31 9 -24 29 -19 42 9 17 36 15 38 -14 31 -14 -4 -34 -4 -44 -1 -18 6 -18 8 -2
51 16 42 19 45 46 40 16 -3 35 -6 42 -6 8 0 14 -7 14 -15 0 -8 4 -15 10 -15
10 0 34 39 28 46 -5 5 -158 34 -179 34 -12 0 -16 -9 -16 -37z"/>
<path d="M2905 2885 c-47 -18 -105 -79 -105 -112 0 -34 39 -50 87 -35 40 12
53 8 35 -10 -19 -19 -14 -35 17 -48 34 -14 58 -5 42 14 -8 9 5 31 45 79 l55
66 -38 25 c-50 33 -89 39 -138 21z m85 -30 c19 -23 5 -43 -55 -72 -87 -43
-103 -2 -22 57 46 34 59 36 77 15z"/>
<path d="M3183 2832 c-9 -15 -7 -21 9 -31 18 -11 24 -10 42 8 18 19 19 23 6
31 -23 15 -44 12 -57 -8z"/>
<path d="M1910 2830 c8 -5 20 -10 25 -10 6 0 3 5 -5 10 -8 5 -19 10 -25 10 -5
0 -3 -5 5 -10z"/>
<path d="M3113 2780 c3 -11 0 -26 -6 -33 -61 -65 -97 -108 -97 -114 0 -13 61
-44 72 -37 5 3 7 13 4 21 -4 9 16 39 50 79 31 36 55 66 53 67 -57 40 -84 46
-76 17z"/>
<path d="M3270 2746 c-6 -6 -18 -11 -28 -11 -12 0 -16 -7 -15 -23 2 -13 -12
-45 -33 -74 -19 -28 -34 -61 -32 -72 4 -26 49 -52 74 -42 18 7 18 8 2 20 -25
18 -23 25 17 82 28 39 40 48 59 46 28 -4 45 15 22 24 -11 4 -14 14 -10 29 4
18 1 23 -20 27 -14 3 -30 0 -36 -6z"/>
<path d="M3417 2754 c-4 -4 -2 -13 3 -19 7 -8 -10 -47 -55 -129 l-64 -117 25
-9 c34 -13 31 -15 53 28 21 39 75 82 105 82 14 0 11 -11 -20 -70 -20 -39 -35
-72 -33 -74 13 -12 80 -23 85 -14 4 6 1 14 -5 18 -9 5 -2 27 24 77 51 99 29
134 -61 94 l-46 -21 37 67 c20 36 33 69 28 73 -12 12 -68 22 -76 14z"/>
<path d="M4773 2629 c-17 -6 -23 -16 -23 -39 0 -29 2 -31 32 -28 25 2 33 9 39
31 9 33 -13 49 -48 36z"/>
<path d="M5052 2628 c-7 -7 -12 -17 -12 -24 0 -6 -11 -15 -25 -18 -14 -4 -35
-21 -46 -39 -16 -24 -20 -26 -16 -10 3 12 0 24 -7 26 -18 7 -80 -5 -88 -17
-13 -19 -9 -36 8 -36 13 0 15 -13 13 -87 -4 -93 0 -100 46 -89 21 5 25 12 25
47 0 52 33 117 64 125 20 5 25 14 31 52 4 26 12 53 17 60 14 16 5 25 -10 10z"/>
<path d="M3908 2615 c-4 -4 -2 -15 4 -24 8 -13 3 -36 -21 -96 -17 -44 -31 -86
-31 -93 0 -7 -11 -17 -25 -22 -40 -15 -29 -28 29 -35 60 -8 89 1 64 19 -22 16
49 206 82 218 16 6 20 12 13 19 -12 12 -105 24 -115 14z"/>
<path d="M4959 2583 c-12 -16 -12 -17 1 -7 8 6 22 14 30 17 13 5 12 6 -1 6 -9
1 -23 -7 -30 -16z"/>
<path d="M4733 2533 c-16 -6 -17 -43 -2 -43 7 0 9 -30 7 -87 -2 -66 0 -88 10
-87 6 1 26 2 42 3 33 1 52 28 30 41 -10 6 -12 29 -6 94 l6 86 -37 -1 c-21 0
-44 -3 -50 -6z"/>
<path d="M4017 2523 c-4 -3 -2 -12 4 -19 8 -10 6 -32 -10 -83 -28 -92 -27
-101 7 -101 25 0 31 6 40 38 12 39 78 116 92 107 5 -3 -2 -38 -16 -77 -13 -39
-24 -73 -24 -74 0 -1 18 -5 41 -9 47 -8 70 5 50 29 -11 12 -9 28 9 80 17 51
19 69 10 85 -14 27 -53 27 -91 0 l-29 -20 0 25 c0 23 -4 26 -38 26 -21 0 -42
-3 -45 -7z"/>
<path d="M4625 2520 c-12 -4 -27 -15 -34 -24 -17 -20 -32 -21 -25 -1 5 12 -4
15 -45 15 -44 0 -51 -3 -51 -19 0 -11 5 -21 12 -23 9 -3 9 -24 0 -95 -7 -50
-15 -105 -18 -122 -6 -30 -5 -31 30 -31 31 0 36 3 36 23 0 32 11 44 47 51 89
20 162 178 101 220 -25 18 -25 18 -53 6z m-12 -138 c-11 -24 -26 -38 -40 -40
-36 -5 -29 37 15 88 l37 44 3 -27 c2 -15 -5 -44 -15 -65z"/>
<path d="M4307 2492 c-25 -27 -21 -54 13 -97 17 -21 29 -43 27 -49 -4 -13 -47
-15 -46 -2 1 13 -22 25 -38 19 -7 -3 -13 -18 -13 -33 0 -26 4 -29 45 -36 56
-8 103 10 116 43 12 32 14 28 -27 73 -22 24 -34 46 -30 55 7 19 36 20 36 1 0
-8 5 -18 10 -21 16 -10 40 15 40 41 0 23 -4 24 -58 24 -44 0 -63 -5 -75 -18z"/>
<path d="M4986 2464 c-4 -9 -4 -19 -1 -22 2 -3 7 3 11 12 4 9 4 19 1 22 -2 3
-7 -3 -11 -12z"/>
<path d="M5038 2425 c-11 -11 3 -35 21 -35 10 0 12 3 5 8 -6 4 -13 13 -15 20
-3 7 -7 10 -11 7z"/>
<path d="M5005 2410 c-3 -5 -1 -10 4 -10 6 0 11 5 11 10 0 6 -2 10 -4 10 -3 0
-8 -4 -11 -10z"/>
<path d="M1910 2206 c0 -3 14 -12 30 -21 17 -9 30 -13 30 -11 0 3 -13 12 -30
21 -16 9 -30 13 -30 11z"/>
<path d="M5048 2193 c7 -3 16 -2 19 1 4 3 -2 6 -13 5 -11 0 -14 -3 -6 -6z"/>
<path d="M7175 2820 c10 -11 20 -20 22 -20 2 0 -2 9 -9 20 -7 11 -17 20 -22
20 -5 0 -1 -9 9 -20z"/>
<path d="M4862 1813 c2 -70 6 -88 18 -88 12 0 15 16 15 85 0 73 -2 85 -18 88
-16 3 -18 -4 -15 -85z"/>
<path d="M2777 1083 c-4 -3 -7 -39 -7 -80 l0 -73 29 0 c16 0 39 8 50 18 37 29
29 116 -12 127 -12 4 -29 9 -38 11 -8 2 -18 1 -22 -3z"/>
<path d="M3580 1005 l0 -75 30 0 c42 0 70 31 70 79 0 49 -21 71 -66 71 l-34 0
0 -75z"/>
<path d="M3962 935 c-12 -25 -22 -50 -22 -55 0 -6 20 -10 45 -10 29 0 45 4 45
13 0 13 -37 97 -43 97 -1 0 -13 -20 -25 -45z"/>
<path d="M5040 941 c0 -77 3 -146 6 -155 7 -18 46 -21 73 -6 26 13 51 82 51
138 0 99 -37 162 -97 162 l-33 0 0 -139z"/>
<path d="M6687 1060 c-45 -53 -48 -190 -7 -258 35 -57 104 -53 136 10 36 70
27 215 -17 259 -30 30 -82 25 -112 -11z"/>
<path d="M7106 1060 c-31 -37 -40 -82 -33 -166 7 -95 50 -145 112 -130 53 13
86 125 66 229 -17 95 -92 129 -145 67z"/>
</g>
</svg>
