<svg width="242" height="85" viewBox="0 0 242 85" fill="none" xmlns="http://www.w3.org/2000/svg">
<path d="M47.4185 6.47081C38.3567 10.5472 33.9676 21.0475 25.7612 26.6502C22.4552 28.9071 18.6433 30.2871 15.0816 32.1143C11.0883 34.1631 7.34872 36.8308 4.54627 40.3364C-8.04657 56.0893 7.85039 75.0778 23.887 79.0897C42.2615 83.6866 63.6667 75.0794 72.3803 57.9796C73.0968 56.5736 73.7209 55.1206 74.2449 53.632C79.6364 38.3157 77.4829 19.1732 64.5063 8.15069C59.7287 4.09253 52.9889 3.96489 47.4185 6.47081Z" fill="#2C2750"/>
<path d="M10.8422 40.5618C10.787 40.8158 10.6358 40.9181 10.4145 40.8941C10.1925 40.8642 9.96878 40.8474 9.74569 40.8314C9.71058 40.8825 9.67629 40.9344 9.64231 40.9867C9.56887 41.0981 9.49542 41.2094 9.41389 41.3146C9.5137 41.493 9.60042 41.6556 9.69101 41.8264L9.89469 42.2069L8.69673 43.0239L8.3748 42.6421C8.26414 42.508 8.15316 42.3737 8.04461 42.2377C7.92603 42.2621 7.81618 42.2817 7.70601 42.3011C7.61768 42.3171 7.52919 42.333 7.44118 42.3506C7.40883 42.452 7.3789 42.5543 7.34929 42.6565L7.28507 42.8746C7.23282 43.0443 7.188 43.1912 7.01151 43.2423L6.96362 43.2562L5.8815 43.0403L5.84235 43.0084C5.71584 42.9053 5.73056 42.7696 5.74658 42.6263C5.76939 42.4226 5.79171 42.223 5.80805 42.0225C5.73978 41.9771 5.67022 41.9327 5.60082 41.8884C5.50893 41.8297 5.41752 41.7706 5.32774 41.7092C5.15836 41.8057 4.98914 41.8984 4.82057 41.9906L4.50187 42.1655L4.39412 42.0717C4.18851 41.892 3.79507 41.3342 3.7145 41.0709L3.67454 40.9396L3.94568 40.7176C4.09468 40.595 4.2448 40.4712 4.39849 40.3519C4.34025 40.1343 4.30353 39.9298 4.27198 39.7386C4.13658 39.7022 4.00683 39.663 3.87709 39.624C3.7797 39.5944 3.68215 39.5653 3.58443 39.5378C3.37882 39.4799 3.33239 39.3194 3.35795 39.1884L3.53525 38.2623C3.54367 38.22 3.59867 38.008 3.86431 38.0427L3.9549 38.0506C4.16262 38.0685 4.37018 38.087 4.57709 38.1117C4.6685 37.9548 4.75845 37.8134 4.85179 37.6665L4.90291 37.5855L4.45333 36.762L4.56674 36.6538C4.84354 36.3898 5.159 36.179 5.53158 36.0098L5.67459 35.9447L6.25925 36.6564L6.37831 36.6341C6.56322 36.5998 6.74085 36.5661 6.91946 36.5398C6.95537 36.4132 6.99128 36.2922 7.02768 36.1715L7.11472 35.876C7.17425 35.666 7.3315 35.6408 7.41384 35.6472C7.8 35.6663 8.10981 35.7231 8.38936 35.8253C8.47526 35.8566 8.61617 35.9415 8.59546 36.158L8.56391 36.5009C8.55307 36.6219 8.5424 36.7425 8.53043 36.8635C8.70773 36.9769 8.87857 37.0951 9.04633 37.2165C9.23529 37.1139 9.42084 37.0141 9.60931 36.9126L9.8921 36.7606L9.99952 36.8784C10.2831 37.1886 10.4931 37.4976 10.6421 37.8223L10.7079 37.9656L9.96959 38.5721L10.1026 39.2162L10.2051 39.2466C10.3545 39.2912 10.5135 39.3385 10.672 39.3875L10.7351 39.4059C10.9731 39.4731 11.0051 39.5881 10.9839 39.8057L10.8422 40.5618ZM10.5743 39.7851L10.5504 39.778C10.3934 39.7293 10.236 39.6826 10.088 39.6387L9.75103 39.5378L9.51856 38.4133L10.2006 37.8526C10.0967 37.6557 9.96668 37.4669 9.80215 37.2728C9.59686 37.3834 9.39528 37.4916 9.19403 37.6013C9.07496 37.6677 8.95962 37.6604 8.85268 37.5814C8.66421 37.4436 8.47251 37.3106 8.2753 37.186C8.15624 37.1113 8.10479 37.006 8.11919 36.8641C8.13229 36.7308 8.14443 36.5978 8.1564 36.4644L8.18196 36.1861C7.98022 36.1198 7.75584 36.0795 7.48632 36.0607L7.41918 36.2884C7.37971 36.4205 7.34007 36.5532 7.30303 36.6857C7.26113 36.8339 7.16681 36.9165 7.01474 36.9389C6.82902 36.9655 6.64492 37 6.4537 37.0359L6.09585 37.1014L5.56037 36.4498C5.33955 36.5621 5.14266 36.6926 4.96503 36.8452L5.37708 37.6004L5.19702 37.8862C5.10238 38.0347 5.0113 38.1777 4.9275 38.3251C4.83966 38.4769 4.71622 38.5416 4.54571 38.5201C4.33766 38.4945 4.12849 38.4765 3.91996 38.4586L3.9143 38.4578L3.77856 39.1681C3.85169 39.1893 3.92352 39.2108 3.99502 39.2324C4.12994 39.2731 4.26503 39.3139 4.40108 39.3498C4.63145 39.4097 4.66348 39.6002 4.67545 39.6717C4.707 39.8634 4.74372 40.0674 4.79921 40.2635C4.84548 40.4284 4.8052 40.5534 4.67222 40.6576C4.51335 40.7806 4.35837 40.908 4.20533 41.0337L4.15906 41.0716C4.25095 41.2457 4.42907 41.5053 4.56674 41.6639L4.62417 41.6323C4.80423 41.5336 4.98558 41.4346 5.16483 41.3316C5.34812 41.2269 5.48272 41.3199 5.53303 41.3544C5.62799 41.4202 5.72474 41.4822 5.82132 41.544C5.90641 41.5983 5.99151 41.653 6.0745 41.7093C6.15441 41.764 6.2298 41.8818 6.21977 42.0016C6.20295 42.2236 6.1782 42.4457 6.15344 42.6677C6.15312 42.6712 6.15264 42.6745 6.15231 42.6777L6.87351 42.8215C6.88031 42.8 6.88742 42.7761 6.8939 42.7557L6.95699 42.5428C6.99209 42.421 7.02768 42.2996 7.06683 42.1794C7.10113 42.0744 7.20337 41.9822 7.30998 41.9602C7.4174 41.9382 7.52596 41.9187 7.63418 41.8991C7.75244 41.8779 7.87054 41.8567 7.98799 41.8316C8.04186 41.8208 8.208 41.7857 8.33743 41.9491C8.45326 42.0952 8.57184 42.239 8.69042 42.3823L8.77034 42.4794L9.36099 42.0764L9.33025 42.019C9.23723 41.8436 9.14857 41.6768 9.05555 41.5131C8.99812 41.4128 8.93891 41.2575 9.08597 41.0711C9.16297 40.9729 9.23173 40.8679 9.3008 40.7628C9.34675 40.6926 9.39302 40.6227 9.4409 40.5539C9.50205 40.4685 9.62177 40.4153 9.72158 40.4201C9.97153 40.4381 10.2043 40.4549 10.4347 40.4843L10.5743 39.7851ZM3.75948 39.2649V39.2657C3.75948 39.2652 3.75948 39.2652 3.75948 39.2649ZM3.93678 38.3384V38.3387C3.93678 38.3387 3.93678 38.3387 3.93678 38.3384ZM7.18639 41.2722C7.06861 41.2722 6.94922 41.2605 6.82902 41.2366C6.35016 41.1412 5.93699 40.8652 5.66585 40.4591C5.39471 40.053 5.29813 39.5658 5.39358 39.0871C5.48854 38.6082 5.76502 38.1954 6.17059 37.9239C6.57665 37.6525 7.06424 37.5562 7.54262 37.6512C8.02148 37.7461 8.43465 38.0226 8.70579 38.4287C8.97693 38.8344 9.07399 39.322 8.97855 39.8007C8.80609 40.6693 8.04008 41.2722 7.18639 41.2722ZM6.90894 40.8357C7.28119 40.9092 7.65926 40.8341 7.9744 40.6236C8.28954 40.4132 8.50389 40.0925 8.57783 39.7208C8.65176 39.349 8.57669 38.9708 8.36622 38.6553C8.15543 38.3402 7.83479 38.1258 7.46302 38.0519C7.09045 37.9779 6.7127 38.0535 6.39805 38.264C6.08291 38.4744 5.86856 38.7951 5.79462 39.1668C5.72069 39.5386 5.79576 39.9168 6.00623 40.2318C6.2167 40.5468 6.53718 40.7615 6.90894 40.8357Z" fill="#F25141"/>
<path d="M54.3584 26.0956L54.2146 26.0772C53.4863 25.9829 51.8726 25.3285 51.3842 24.9287L51.2792 24.8428L51.4876 24.1276C51.6349 23.6193 51.7839 23.1053 51.9468 22.5962C51.9903 22.4608 51.9912 22.4396 51.8658 22.3322C51.4133 21.9444 50.9941 21.5088 50.6434 21.1343C50.5028 20.9836 50.4669 20.979 50.3486 21.0197C49.9877 21.1462 49.6223 21.2604 49.2573 21.3743C48.9941 21.4562 48.731 21.5381 48.4698 21.6251C48.0888 21.7505 47.9302 21.5245 47.8676 21.3787L46.8653 19.0334C46.7184 18.6905 47.0075 18.5418 47.1024 18.4931L47.3472 18.3574C47.828 18.0882 48.3251 17.8099 48.8242 17.5524C48.952 17.4868 48.9828 17.4506 48.9689 17.2712C48.9325 16.8024 48.9177 16.3384 48.9025 15.8468L48.8865 15.3795L46.7109 14.2368L46.7428 14.0853C46.9473 13.1174 47.3131 12.2057 47.8605 11.2981L47.9424 11.1615L50.2433 11.8607L50.6028 11.5026C50.9857 11.1192 51.3479 10.7571 51.7292 10.4064C51.8187 10.3242 51.8179 10.3117 51.782 10.2043C51.6645 9.85083 51.5532 9.49589 51.4414 9.14047C51.3563 8.86901 51.2709 8.59739 51.1831 8.32657C51.1491 8.2232 51.0577 7.9464 51.352 7.76747C52.2041 7.24801 52.9437 6.9209 53.6793 6.73841C54.0171 6.65494 54.1677 6.84858 54.2504 7.00195C54.3953 7.27066 54.5422 7.53824 54.6896 7.80582C54.868 8.13002 55.047 8.4547 55.2215 8.78133C55.2666 8.86642 55.2666 8.87079 55.3657 8.86885C55.955 8.85251 56.5837 8.8585 57.2845 8.88729C57.3244 8.88972 57.3405 8.88373 57.3405 8.88373C57.3401 8.88373 57.3505 8.87338 57.3739 8.82695C57.6263 8.33013 57.8811 7.8351 58.139 7.3331L58.4955 6.63989L58.6525 6.67856C59.7234 6.94371 60.5939 7.29638 61.393 7.78867L61.5251 7.87053L60.8248 10.2857L62.3837 11.8235L62.763 11.7041C63.1835 11.5712 63.6344 11.4286 64.0869 11.2916C64.1551 11.2709 64.2131 11.2517 64.263 11.2353C64.6875 11.0931 64.7765 11.1711 65.0038 11.5903L65.0525 11.6797C65.0593 11.6925 65.0789 11.7137 65.096 11.7325L65.17 11.8323L65.7601 13.2418C65.7797 13.3145 65.7868 13.3541 65.7936 13.3936C65.8053 13.4615 65.8164 13.5257 65.8376 13.5744C66.0017 13.9514 65.9018 14.2249 65.5317 14.4107C64.9595 14.6973 64.3928 15.0261 63.8453 15.3443C63.805 15.371 63.7782 15.4198 63.7763 15.4417C63.7727 15.6597 63.7766 15.8785 63.7803 16.0978C63.7863 16.4505 63.7923 16.8147 63.7678 17.1753C63.7547 17.3637 63.7882 17.3988 63.9492 17.4796C64.4064 17.7091 64.8569 17.9524 65.3304 18.2079L66.0816 18.6109L64.8923 21.6676L64.545 21.5694C64.4612 21.5458 64.396 21.5279 64.3318 21.5083L63.8447 21.3609C63.3835 21.2219 62.9227 21.0827 62.4642 20.9345C62.3881 20.9097 62.3767 20.907 62.2869 21.0016C62.0605 21.2396 61.8265 21.4699 61.5926 21.7C61.3862 21.9029 61.1797 22.1057 60.9793 22.3141C60.963 22.3353 60.9474 22.4087 60.9546 22.437C61.0432 22.7481 61.1427 23.0571 61.242 23.3663C61.3071 23.5687 61.3723 23.7712 61.4345 23.9744C61.5683 24.4097 61.6423 24.6493 61.4481 24.8844L61.4163 24.9231L58.8586 26.0032L58.8075 25.9984C58.5583 25.9756 58.4588 25.7844 58.2935 25.4678C58.0139 24.9318 57.7365 24.3996 57.4466 23.888C57.4319 23.8696 57.3667 23.8377 57.3384 23.8374C57.074 23.8371 56.8105 23.8414 56.5461 23.8474C56.2323 23.8542 55.9184 23.8605 55.6046 23.8558C55.4776 23.8506 55.476 23.8586 55.4389 23.9349C55.1977 24.4372 54.9458 24.9341 54.6957 25.4285L54.3584 26.0956ZM51.7501 24.6904C52.2481 25.0235 53.4713 25.5166 54.1264 25.648L54.3304 25.2439C54.5796 24.7522 54.83 24.258 55.0704 23.7579C55.1974 23.4944 55.3839 23.4481 55.6116 23.4473C55.9199 23.4522 56.2281 23.4457 56.5372 23.4389C56.8051 23.4329 57.0732 23.4289 57.3411 23.4289C57.4937 23.43 57.7134 23.5292 57.8027 23.6873C58.0953 24.2048 58.3749 24.7399 58.6449 25.2578C58.718 25.3976 58.7846 25.5254 58.8246 25.5741L61.1511 24.5917C61.1718 24.527 61.1408 24.4096 61.0442 24.0946H61.0438C60.9824 23.8929 60.9177 23.6924 60.853 23.4917C60.7523 23.1786 60.6517 22.8651 60.5614 22.5493C60.5139 22.3828 60.5698 22.1504 60.6852 22.0307C60.8881 21.8199 61.0972 21.6142 61.3061 21.409C61.5369 21.1821 61.7676 20.9553 61.9906 20.7206C62.1299 20.574 62.2992 20.4511 62.5908 20.546C63.0463 20.6934 63.5048 20.8316 63.9633 20.9701L64.4504 21.1174C64.5099 21.1354 64.5703 21.1522 64.6464 21.1737L65.5697 18.801L65.1365 18.5682C64.6668 18.3147 64.2197 18.0734 63.7664 17.8453C63.5032 17.7135 63.3331 17.5446 63.3603 17.1478C63.3835 16.8048 63.3775 16.4489 63.372 16.1051C63.3679 15.8819 63.3644 15.6583 63.3679 15.435C63.3704 15.2737 63.4786 15.0853 63.6146 15.0062C64.1933 14.67 64.7655 14.3377 65.3494 14.0454C65.5242 13.9579 65.5403 13.9148 65.4631 13.7378C65.4223 13.644 65.406 13.5486 65.3913 13.4639C65.3856 13.4313 65.3801 13.3984 65.3725 13.3661L64.7951 12.0093C64.7636 11.975 64.7244 11.9318 64.6942 11.8755L64.645 11.7852C64.601 11.7045 64.5563 11.6215 64.5284 11.5815C64.4949 11.5894 64.4408 11.6074 64.3921 11.6239C64.3399 11.6411 64.2784 11.6614 64.2056 11.6834C63.7552 11.82 63.306 11.9617 62.8866 12.0943L62.2721 12.288L60.3646 10.406L61.0463 8.05722C60.3599 7.65229 59.6103 7.35042 58.7115 7.116L58.5035 7.52044C58.2454 8.02195 57.9911 8.51634 57.7396 9.01234C57.6648 9.15924 57.5475 9.30257 57.2683 9.29659C56.5762 9.26779 55.9581 9.26229 55.3771 9.27814C55.1236 9.28138 54.9801 9.19628 54.8612 8.97433C54.6875 8.64932 54.5099 8.32625 54.3321 8.00351C54.1844 7.7348 54.0365 7.46641 53.8907 7.1964C53.8603 7.14011 53.8448 7.12813 53.8432 7.12733C53.8432 7.12733 53.8448 7.127 53.8361 7.127C53.8273 7.127 53.8089 7.12813 53.7778 7.13574C53.0841 7.30787 52.381 7.61977 51.5655 8.11691C51.5511 8.12128 51.5531 8.14166 51.5723 8.1999C51.661 8.47266 51.7469 8.74541 51.8323 9.01849C51.9433 9.37117 52.0539 9.72416 52.1709 10.0751C52.2584 10.337 52.2109 10.5203 52.0064 10.7076C51.6319 11.0522 51.2729 11.4112 50.8927 11.7918L50.3588 12.3233L48.1307 11.6461C47.6795 12.4216 47.3665 13.2006 47.1772 14.0197L49.2876 15.1278L49.312 15.8343C49.3272 16.3206 49.3416 16.7804 49.3775 17.24C49.4031 17.5694 49.2937 17.7714 49.0125 17.916C48.5198 18.1704 48.0259 18.4467 47.5478 18.7142L47.2903 18.8568C47.2775 18.8636 47.2607 18.872 47.2467 18.8799L48.2446 21.2179C48.2546 21.2418 48.2625 21.2527 48.2658 21.2562C48.2677 21.2543 48.2905 21.2538 48.3416 21.2371C48.6052 21.1493 48.8708 21.0666 49.1363 20.984C49.4969 20.8717 49.8575 20.7591 50.2137 20.6342C50.5763 20.5077 50.7728 20.6734 50.9425 20.855C51.286 21.2219 51.6953 21.6473 52.1326 22.0219C52.3778 22.2319 52.4333 22.4217 52.3374 22.7211C52.1753 23.2267 52.0276 23.7371 51.8813 24.2418L51.7501 24.6904ZM56.4059 19.4845C56.0094 19.4845 55.6124 19.407 55.233 19.252C54.4511 18.933 53.8393 18.3252 53.5107 17.5401C52.8382 15.9344 53.5798 14.0839 55.1631 13.4151C55.9238 13.0936 56.766 13.0896 57.5339 13.4034C58.3158 13.7225 58.9277 14.3307 59.2559 15.1154C59.9284 16.721 59.1876 18.5716 57.6038 19.2403C57.2188 19.4031 56.8127 19.4845 56.4059 19.4845ZM56.3611 13.5806C56.0081 13.5806 55.6559 13.6513 55.322 13.7922C53.9459 14.3731 53.3022 15.9841 53.8877 17.3822C54.1743 18.0662 54.7067 18.5961 55.3875 18.8736C56.0543 19.1463 56.7851 19.1423 57.4448 18.8636C58.8212 18.2821 59.4646 16.6717 58.8788 15.2736C58.5924 14.5896 58.0597 14.0596 57.3793 13.7822C57.0499 13.6476 56.7048 13.5806 56.3611 13.5806Z" fill="#F25141"/>
<path d="M49.4053 5.32774C49.4271 5.09041 49.4378 5.13166 49.2251 5.06566C48.9659 4.98542 48.7053 4.90938 48.4798 4.84176C48.4112 4.50931 48.347 4.1987 48.2806 3.87789C48.5311 3.67211 48.7928 3.45711 49.0562 3.24082C48.8886 2.87585 48.6618 2.56265 48.3939 2.26935C48.1163 2.41916 47.8451 2.56459 47.575 2.71197C47.5264 2.73834 47.4942 2.74481 47.4408 2.70566C47.2317 2.55262 47.0183 2.40476 46.7992 2.26644C46.7361 2.22664 46.7251 2.19186 46.7318 2.12618C46.7593 1.85537 46.7805 1.5839 46.8068 1.31293C46.8135 1.24563 46.7997 1.20745 46.7277 1.18108C46.405 1.06298 46.0706 1.0172 45.7301 1.00021C45.6626 0.996818 45.6453 1.03403 45.6296 1.08903C45.5566 1.34318 45.4775 1.59555 45.4063 1.85019C45.3858 1.92363 45.3578 1.95259 45.2747 1.96456C44.9877 2.00598 44.7033 2.06406 44.3949 2.12019C44.2079 1.89257 43.9958 1.63422 43.7836 1.37602C43.4112 1.54524 43.084 1.75911 42.7943 2.03558C42.9593 2.33778 43.1196 2.63173 43.2651 2.89801C43.1149 3.13777 42.9697 3.35697 42.8393 3.58476C42.7899 3.67082 42.7414 3.69832 42.6443 3.68651C42.3858 3.65497 42.1262 3.63361 41.8667 3.6108C41.8154 3.60627 41.7512 3.58621 41.7353 3.66888C41.6709 4.00537 41.6064 4.34187 41.5421 4.67836C41.5284 4.74987 41.5611 4.78239 41.6305 4.80196C41.8887 4.8746 42.144 4.95856 42.4033 5.02683C42.5033 5.0532 42.5236 5.1082 42.5387 5.19912C42.5757 5.42367 42.6173 5.64854 42.6788 5.86726C42.7053 5.96158 42.6914 6.00331 42.6178 6.06042C42.3814 6.24371 42.1522 6.43639 41.9251 6.62146C41.9961 6.85345 42.3874 7.42484 42.5987 7.60927C42.8652 7.46254 43.1361 7.31694 43.4029 7.1639C43.4696 7.12556 43.5069 7.13753 43.5669 7.17911C43.7604 7.31354 43.9633 7.43423 44.1582 7.56672C44.1909 7.58905 44.2225 7.64502 44.2195 7.68272C44.2013 7.92263 44.1744 8.16206 44.1479 8.40116C44.1328 8.53495 44.1264 8.58883 44.1707 8.6249L45.2425 8.83828C45.3177 8.81644 45.3374 8.75432 45.3887 8.58656C45.4521 8.37916 45.5083 8.16934 45.5759 7.9634C45.5882 7.9257 45.6357 7.88138 45.6738 7.87345C45.9198 7.82249 46.1688 7.78577 46.4144 7.73319C46.4859 7.71782 46.5271 7.72251 46.5737 7.7814C46.7378 7.98864 46.9073 8.1915 47.0751 8.39566C47.1022 8.42867 47.1306 8.46086 47.1789 8.51748C47.5036 8.29617 47.8244 8.07729 48.1535 7.8529C48.0017 7.57028 47.8679 7.31112 47.7236 7.05794C47.6728 6.96863 47.6678 6.91298 47.7379 6.82401C47.8809 6.64233 47.9986 6.44076 48.1323 6.25132C48.1528 6.2222 48.2043 6.1968 48.2392 6.19923C48.5066 6.21848 48.7747 6.23724 49.0403 6.27267C49.1678 6.28966 49.2201 6.24565 49.2414 6.12966L49.4053 5.32774ZM45.1491 6.64896C44.1912 6.45823 43.5692 5.52721 43.7599 4.56917C43.9505 3.61129 44.8817 2.98926 45.8396 3.17999C46.7975 3.37073 47.4195 4.30175 47.2288 5.25963C47.0382 6.21767 46.107 6.8397 45.1491 6.64896Z" fill="#F25141"/>
<path d="M32.4381 44.1293C32.4381 44.1293 20.4049 42.8606 13.4772 47.4619C6.54954 52.0631 6.45641 55.3023 6.62359 55.9929C6.79076 56.6835 7.406 57.8358 13.3267 57.4699C19.2473 57.1039 19.5543 60.3047 21.378 59.3223C23.2017 58.3398 37.4065 44.3594 32.4381 44.1293Z" fill="#F25141"/>
<path d="M67.7582 17.2718C64.5336 14.0472 41.2679 21.1089 23.0198 39.357C19.2743 43.1025 16.8479 46.5402 15.4771 49.6882C14.9875 50.8126 17.0301 58.4769 21.8051 63.1397C26.8252 68.0419 34.6365 69.9082 36.0734 69.2174C39.0205 67.8007 42.2155 65.4673 45.6728 62.01C63.9209 43.7619 70.9828 20.4964 67.7582 17.2718Z" fill="#FFBB3A"/>
<path d="M58.0336 46.3982C53.853 49.6436 49.5575 50.5179 49.5575 50.5179C49.5575 50.5179 48.8553 56.1355 40.0276 62.054C31.1999 67.9726 27.2876 58.9443 27.2876 58.543C27.2876 58.543 27.2862 62.9777 26.9414 66.7376C30.9906 68.8565 35.0204 69.5995 36.0116 69.1229C38.9537 67.7086 42.1433 65.3793 45.5948 61.9278C50.5678 56.9548 54.7067 51.6089 58.0336 46.3982Z" fill="#4C457D"/>
<path d="M49.6418 50.581C49.6418 50.581 52.0534 62.4381 48.1345 69.7734C44.2157 77.1087 41.0002 77.5106 40.2968 77.4102C39.5934 77.3097 38.3876 76.8073 38.1866 70.8787C37.9857 64.9502 34.7702 64.9502 35.5741 63.041C36.3779 61.1318 48.9384 45.6573 49.6418 50.581Z" fill="#F25141"/>
<path d="M15.6562 49.1772C15.5865 49.3275 15.5377 49.4885 15.4521 49.6265C14.7266 50.7964 16.9218 58.4165 21.7694 63.0553C26.8304 67.8983 34.5794 69.8124 36.014 69.1228C36.1554 69.0548 36.2977 68.9827 36.4402 68.9105C35.6598 63.4103 30.8583 57.4344 25.685 53.4269C21.8351 50.4446 18.1927 49.4567 15.6562 49.1772Z" fill="#4C457D"/>
<path d="M14.5508 61.1232L18.4619 54.4517C22.9509 53.8024 31.4523 62.7848 32.2496 67.3551L25.8493 71.8505C25.8493 71.8505 15.1008 64.4121 14.5508 61.1232Z" fill="#FFBB3A"/>
<path d="M14.5517 61.1232C14.5139 61.2048 14.476 61.2864 14.4408 61.3674C14.1751 61.9776 15.2836 66.137 17.875 68.6675C20.5994 71.3279 24.8387 72.3408 25.6186 71.9659C25.6954 71.9289 25.7728 71.8898 25.8503 71.8505C25.426 68.8605 22.8159 65.6119 20.0036 63.4334C17.9107 61.8121 15.9306 61.2751 14.5517 61.1232Z" fill="#FFBB3A"/>
<path d="M19.5467 65.8546C19.5467 65.8546 20.8027 65.955 20.7525 67.4121C20.7023 68.8691 18.994 71.2304 19.7979 73.2401C20.6018 75.2498 21.6569 76.7571 20.1496 78.4653C18.6423 80.1735 17.0848 79.2691 17.0848 79.2691C17.0848 79.2691 16.6327 81.5099 13.2037 81.5099C9.77465 81.5099 8.9959 79.244 8.9959 79.244C8.9959 79.244 6.58429 79.5455 5.50409 77.4856C4.42389 75.4256 6.2326 73.5667 6.2326 73.5667C6.2326 73.5667 3.51953 72.9889 3.51953 70.2758C3.51953 67.5628 7.89058 66.7087 7.89058 66.7087C7.89058 66.7087 7.4384 64.1715 10.5283 63.7946C13.6182 63.4178 15.7283 65.955 15.7283 65.955C15.7283 65.955 17.2607 63.87 19.5467 65.8546Z" fill="#FFBB3A"/>
<path d="M44.3383 31.829C44.3383 31.829 35.2435 39.4316 35.4567 40.4974C35.6698 41.5632 40.9277 45.0448 40.7856 47.1764C40.6435 49.308 30.3409 57.7632 29.6304 58.1185C28.9198 58.4738 29.0619 57.4435 29.3461 57.3014C29.6304 57.1593 38.6896 49.4856 39.5067 47.5316C40.3238 45.5777 33.1119 42.2027 34.7462 39.7869C36.3804 37.3711 43.8764 30.8342 43.8764 30.8342L44.3383 31.829Z" fill="#4C457D"/>
<path d="M40.4353 25.7411C40.4353 25.7411 40.2027 24.6526 39.2968 25.2033C38.3908 25.7539 37.9823 29.0579 40.5579 31.225C43.1336 33.3921 46.6152 33.8006 51.4468 33.0724C56.2784 32.3441 58.8896 28.7381 59.3336 25.9138C59.929 22.127 57.2239 19.6132 54.968 18.7428C52.7121 17.8724 52.0741 19.141 52.1068 19.8096C52.1396 20.4783 49.0843 24.0131 46.7928 24.6881C44.5014 25.3631 40.4353 25.7411 40.4353 25.7411Z" fill="white"/>
<path d="M52.0177 19.7985C48.4242 21.2702 44.4569 23.2411 40.3658 25.72C39.5669 27.899 40.2798 30.104 43.8398 31.2301C50.7912 33.429 59.3743 28.5347 57.0335 23.1438C56.0541 20.8882 54.0684 20.0258 52.0177 19.7985Z" fill="#FFBB3A"/>
<path d="M52.0177 19.7985C48.4242 21.2702 44.4569 23.2411 40.3658 25.72C39.5669 27.899 40.2798 30.104 43.8398 31.2301C44.8896 31.5622 45.9766 31.7315 47.0576 31.7628C46.9779 31.7395 46.8982 31.7163 46.8189 31.6912C44.015 30.8042 42.9773 29.2479 43.0533 27.5622C43.0738 27.1077 43.3479 26.157 44.6085 25.4292C48.0695 23.431 51.4012 21.7632 54.4828 20.473C53.7178 20.1014 52.874 19.8934 52.0177 19.7985Z" fill="#4C457D"/>
<path d="M44.0157 36.1614C44.0157 36.4013 43.9205 36.6313 43.7509 36.8009C43.5813 36.9705 43.3512 37.0658 43.1114 37.0658C42.8715 37.0658 42.6415 36.9705 42.4719 36.8009C42.3023 36.6313 42.207 36.4013 42.207 36.1614C42.207 35.9216 42.3023 35.6916 42.4719 35.522C42.6415 35.3524 42.8715 35.2571 43.1114 35.2571C43.3512 35.2571 43.5813 35.3524 43.7509 35.522C43.9205 35.6916 44.0157 35.9216 44.0157 36.1614Z" fill="#4C457D"/>
<path d="M40.5504 39.9045C40.5504 40.151 40.4524 40.3874 40.2781 40.5617C40.1038 40.736 39.8674 40.8339 39.6209 40.8339C39.4988 40.8339 39.378 40.8099 39.2652 40.7632C39.1524 40.7165 39.05 40.648 38.9636 40.5617C38.8773 40.4754 38.8089 40.3729 38.7622 40.2601C38.7154 40.1474 38.6914 40.0265 38.6914 39.9045C38.6914 39.7824 38.7154 39.6615 38.7622 39.5488C38.8089 39.436 38.8773 39.3335 38.9636 39.2472C39.05 39.1609 39.1524 39.0924 39.2652 39.0457C39.378 38.999 39.4988 38.975 39.6209 38.975C39.8674 38.975 40.1038 39.0729 40.2781 39.2472C40.4524 39.4215 40.5504 39.6579 40.5504 39.9045Z" fill="#4C457D"/>
<path d="M36.129 48.8223C36.129 49.0622 36.0337 49.2922 35.8641 49.4618C35.6945 49.6314 35.4645 49.7267 35.2247 49.7267C34.9848 49.7267 34.7548 49.6314 34.5852 49.4618C34.4156 49.2922 34.3203 49.0622 34.3203 48.8223C34.3203 48.5825 34.4156 48.3524 34.5852 48.1828C34.7548 48.0132 34.9848 47.918 35.2247 47.918C35.4645 47.918 35.6945 48.0132 35.8641 48.1828C36.0337 48.3524 36.129 48.5825 36.129 48.8223Z" fill="#4C457D"/>
<path d="M32.6597 52.5653C32.6597 52.8119 32.5618 53.0483 32.3875 53.2226C32.2132 53.3969 31.9768 53.4948 31.7303 53.4948C31.6082 53.4948 31.4873 53.4708 31.3746 53.4241C31.2618 53.3774 31.1593 53.3089 31.073 53.2226C30.9867 53.1363 30.9182 53.0338 30.8715 52.921C30.8248 52.8083 30.8008 52.6874 30.8008 52.5653C30.8008 52.4433 30.8248 52.3224 30.8715 52.2096C30.9182 52.0969 30.9867 51.9944 31.073 51.9081C31.1593 51.8218 31.2618 51.7533 31.3746 51.7066C31.4873 51.6599 31.6082 51.6359 31.7303 51.6359C31.9768 51.6359 32.2132 51.7338 32.3875 51.9081C32.5618 52.0824 32.6597 52.3188 32.6597 52.5653Z" fill="#4C457D"/>
<path d="M8.99762 79.2438C8.99762 79.2438 8.31749 78.7948 8.13986 77.2138C7.96223 75.6329 9.82736 75.0645 9.82736 75.0645C9.82736 75.0645 9.09907 74.3717 9.45434 73.6967C9.8096 73.0217 10.8932 73.2882 10.8932 73.2882C10.8932 73.2882 10.3247 72.5244 9.45434 73.1994C8.58394 73.8744 9.04578 74.7803 9.04578 74.7803C9.04578 74.7803 7.76683 74.7625 7.26946 76.1481C6.77209 77.5336 7.65274 79.0179 8.99762 79.2438Z" fill="#4C457D"/>
<path d="M7.89151 66.7085C7.89151 66.7085 6.86012 67.7994 7.35749 68.6165C7.85486 69.4336 8.7075 69.5579 8.7075 69.5579C8.7075 69.5579 7.51736 69.9842 7.51736 70.6592C7.51736 71.3342 7.4996 71.3875 7.4996 71.3875C7.4996 71.3875 7.00223 70.8191 7.17986 70.304C7.3575 69.7888 7.71276 69.6645 7.71276 69.6645C7.71276 69.6645 5.37025 68.2999 7.89151 66.7085Z" fill="#4C457D"/>
<path d="M17.7001 66.9974C17.7001 66.9974 15.703 68.5674 12.9523 68.693C10.2015 68.8186 9.87496 68.5549 10.8672 68.5423C11.8595 68.5298 13.7436 68.4669 15.1629 67.8515C16.5822 67.236 17.8885 66.4949 18.0393 66.3442C18.19 66.1935 18.303 66.5326 17.7001 66.9974Z" fill="#4C457D"/>
<path d="M17.7631 67.9897C17.7631 67.9897 13.7437 71.8332 12.6886 72.5617C11.6336 73.2902 13.2915 72.4361 15.1505 71.1298C17.0094 69.8235 19.1196 66.8341 17.7631 67.9897Z" fill="#4C457D"/>
<path d="M17.0847 79.2691C17.0847 79.2691 16.0422 80.2237 14.6103 79.9222C13.1784 79.6208 13.8064 77.0207 13.8064 77.0207C13.8064 77.0207 12.5252 76.355 12.8141 75.6265C13.103 74.898 13.819 75.0111 13.819 75.0111C13.819 75.0111 12.9021 74.3454 12.3745 75.8526C11.847 77.3599 13.2789 77.7116 13.2789 77.7116C13.2789 77.7116 12.2364 79.8167 14.133 80.6633C16.0296 81.5099 17.0847 79.2691 17.0847 79.2691Z" fill="#4C457D"/>
<path d="M64.7658 16.5115C63.2483 16.5135 61.2581 16.8212 58.9219 17.4383C61.9082 18.821 66.4256 22.0304 66.6176 28.8392C68.5868 22.8991 68.9115 18.532 67.6445 17.265C67.1416 16.762 66.1503 16.5096 64.7658 16.5115Z" fill="#F25141"/>
<path d="M84.565 48.35C85.7783 50.8233 87.26 53.1217 89.01 55.245C90.7833 57.3683 92.44 58.6633 93.98 59.13C93.98 60.11 93.7233 60.8683 93.21 61.405C92.6967 61.9417 91.9617 62.21 91.005 62.21C89.745 62.21 88.2867 61.335 86.63 59.585C84.9967 57.8117 83.5617 55.8283 82.325 53.635C81.0883 51.4417 80.225 49.5167 79.735 47.86C82.045 46.8567 84.0167 45.305 85.65 43.205C87.2833 41.0817 88.1 38.9933 88.1 36.94C89.1033 36.94 89.9667 37.115 90.69 37.465C91.4367 37.815 91.81 38.375 91.81 39.145C91.81 40.3583 91.0867 41.8283 89.64 43.555C88.1933 45.2817 86.5017 46.88 84.565 48.35ZM79.63 61.58C78.8833 61.86 78.09 62 77.25 62C76.41 62 75.675 61.7317 75.045 61.195C74.4383 60.6583 74.135 59.9233 74.135 58.99C74.135 58.0567 74.2517 56.2717 74.485 53.635C74.7183 50.975 74.835 48.8517 74.835 47.265C74.835 43.1817 74.59 39.95 74.1 37.57C74.8467 37.29 75.64 37.15 76.48 37.15C77.32 37.15 78.0433 37.4183 78.65 37.955C79.28 38.4917 79.595 39.2267 79.595 40.16C79.595 41.0933 79.4783 42.89 79.245 45.55C79.0117 48.1867 78.895 50.2983 78.895 51.885C78.895 55.9683 79.14 59.2 79.63 61.58ZM96.3477 44.605C97.0944 44.395 97.841 44.29 98.5877 44.29C99.3577 44.29 100.011 44.5233 100.548 44.99C101.084 45.4567 101.353 46.0633 101.353 46.81C101.353 47.5333 101.224 48.805 100.968 50.625C100.734 52.4217 100.618 53.8217 100.618 54.825C100.618 57.4383 100.863 59.69 101.353 61.58C100.629 61.86 99.8477 62 99.0077 62C98.1677 62 97.5027 61.8133 97.0127 61.44C96.5227 61.0433 96.2777 60.4833 96.2777 59.76C96.2777 59.0133 96.4177 57.8 96.6977 56.12C96.9777 54.44 97.1177 53.0517 97.1177 51.955C97.1177 49.0383 96.861 46.5883 96.3477 44.605ZM96.8027 36.695C97.6194 36.3217 98.4244 36.135 99.2177 36.135C100.011 36.135 100.594 36.345 100.968 36.765C101.364 37.1617 101.563 37.7567 101.563 38.55C101.563 39.3433 101.294 40.0433 100.758 40.65C100.244 41.2567 99.5677 41.56 98.7277 41.56C97.001 41.56 96.1377 40.6617 96.1377 38.865C96.1377 38.0717 96.3594 37.3483 96.8027 36.695ZM116.224 36.17C116.97 35.89 117.74 35.75 118.534 35.75C119.327 35.75 119.98 36.0183 120.494 36.555C121.007 37.0683 121.264 37.7217 121.264 38.515C121.264 39.285 121.147 41.1283 120.914 44.045C120.68 46.9383 120.564 49.7967 120.564 52.62C120.564 55.42 120.844 58.4067 121.404 61.58C120.564 61.86 119.689 62 118.779 62C117.239 62 116.469 60.915 116.469 58.745C116.469 58.0217 116.62 56.7267 116.924 54.86C115.944 56.9367 115.069 58.4767 114.299 59.48C113.552 60.4833 112.817 61.195 112.094 61.615C111.394 62.0117 110.647 62.21 109.854 62.21C108.08 62.21 106.715 61.5567 105.759 60.25C104.825 58.9433 104.359 57.3333 104.359 55.42C104.359 53.5067 104.697 51.71 105.374 50.03C106.074 48.3267 107.112 46.915 108.489 45.795C109.889 44.6517 111.37 44.08 112.934 44.08C114.497 44.08 115.85 44.29 116.994 44.71C116.947 41.7 116.69 38.8533 116.224 36.17ZM116.994 47.685C115.85 47.265 114.614 47.055 113.284 47.055C111.954 47.055 110.81 47.44 109.854 48.21C109.06 50.1 108.664 52.2117 108.664 54.545C108.664 55.6183 108.815 56.645 109.119 57.625C109.422 58.605 109.924 59.095 110.624 59.095C111.697 59.095 112.91 57.8933 114.264 55.49C115.64 53.0867 116.55 50.485 116.994 47.685ZM135.74 36.17C136.487 35.89 137.257 35.75 138.05 35.75C138.844 35.75 139.497 36.0183 140.01 36.555C140.524 37.0683 140.78 37.7217 140.78 38.515C140.78 39.285 140.664 41.1283 140.43 44.045C140.197 46.9383 140.08 49.7967 140.08 52.62C140.08 55.42 140.36 58.4067 140.92 61.58C140.08 61.86 139.205 62 138.295 62C136.755 62 135.985 60.915 135.985 58.745C135.985 58.0217 136.137 56.7267 136.44 54.86C135.46 56.9367 134.585 58.4767 133.815 59.48C133.069 60.4833 132.334 61.195 131.61 61.615C130.91 62.0117 130.164 62.21 129.37 62.21C127.597 62.21 126.232 61.5567 125.275 60.25C124.342 58.9433 123.875 57.3333 123.875 55.42C123.875 53.5067 124.214 51.71 124.89 50.03C125.59 48.3267 126.629 46.915 128.005 45.795C129.405 44.6517 130.887 44.08 132.45 44.08C134.014 44.08 135.367 44.29 136.51 44.71C136.464 41.7 136.207 38.8533 135.74 36.17ZM136.51 47.685C135.367 47.265 134.13 47.055 132.8 47.055C131.47 47.055 130.327 47.44 129.37 48.21C128.577 50.1 128.18 52.2117 128.18 54.545C128.18 55.6183 128.332 56.645 128.635 57.625C128.939 58.605 129.44 59.095 130.14 59.095C131.214 59.095 132.427 57.8933 133.78 55.49C135.157 53.0867 136.067 50.485 136.51 47.685ZM144.547 56.19L144.897 51.15C144.897 48.8867 144.57 46.74 143.917 44.71C144.57 44.43 145.375 44.29 146.332 44.29C148.198 44.29 149.132 45.3283 149.132 47.405C149.132 48.3383 149.003 49.6567 148.747 51.36C148.49 53.0633 148.362 54.2417 148.362 54.895C148.362 55.525 148.373 55.9917 148.397 56.295C148.42 56.575 148.478 56.9133 148.572 57.31C148.712 58.1033 149.167 58.5 149.937 58.5C150.73 58.5 151.57 57.8817 152.457 56.645C153.367 55.385 154.09 53.9967 154.627 52.48C155.187 50.9633 155.467 49.7617 155.467 48.875C155.35 47.0317 155.152 45.6433 154.872 44.71C155.618 44.43 156.377 44.29 157.147 44.29C157.94 44.29 158.593 44.535 159.107 45.025C159.643 45.515 159.912 46.1683 159.912 46.985C159.912 59.725 157.578 67.3667 152.912 69.91C151.862 70.47 150.672 70.75 149.342 70.75C148.012 70.75 146.845 70.4 145.842 69.7C144.862 69 144.372 68.02 144.372 66.76C144.372 65.92 144.687 65.2083 145.317 64.625C145.947 64.065 146.693 63.785 147.557 63.785C147.743 63.785 147.977 63.8083 148.257 63.855C148.187 64.1583 148.152 64.4267 148.152 64.66C148.152 66.7133 148.863 67.74 150.287 67.74C151.15 67.74 151.932 67.2733 152.632 66.34C153.332 65.4067 153.892 64.2633 154.312 62.91C155.128 60.1567 155.537 57.66 155.537 55.42C154.837 57.31 153.88 58.8383 152.667 60.005C151.477 61.1483 150.182 61.72 148.782 61.72C145.958 61.72 144.547 59.8767 144.547 56.19Z" fill="#F25141"/>
<path d="M184.271 36.73C186.301 36.73 188.075 37.325 189.591 38.515C191.108 39.705 191.866 41.245 191.866 43.135C191.866 44.1383 191.586 44.9667 191.026 45.62C190.466 46.2733 189.778 46.6 188.961 46.6C188.145 46.6 187.491 46.495 187.001 46.285C187.071 45.9117 187.106 45.515 187.106 45.095C187.083 43.625 186.721 42.435 186.021 41.525C185.321 40.5917 184.295 40.125 182.941 40.125C181.611 40.125 180.375 40.5567 179.231 41.42C178.555 42.4 178.03 43.6833 177.656 45.27C177.283 46.8567 177.096 48.42 177.096 49.96C177.096 52.5267 177.586 54.685 178.566 56.435C179.57 58.1617 181.121 59.025 183.221 59.025C185.158 59.025 186.465 58.29 187.141 56.82C187.771 55.5367 188.086 53.8333 188.086 51.71C189.276 51.71 190.268 51.9317 191.061 52.375C191.855 52.795 192.251 53.495 192.251 54.475C192.251 56.7617 191.248 58.6633 189.241 60.18C187.235 61.6733 184.971 62.42 182.451 62.42C179.161 62.42 176.665 61.335 174.961 59.165C173.258 56.9717 172.406 54.0083 172.406 50.275C172.406 46.5417 173.468 43.3567 175.591 40.72C177.738 38.06 180.631 36.73 184.271 36.73ZM195.167 36.17C195.914 35.89 196.684 35.75 197.477 35.75C198.27 35.75 198.924 36.0183 199.437 36.555C199.974 37.0683 200.242 37.78 200.242 38.69C200.242 39.5767 200.114 41.3733 199.857 44.08C199.624 46.7633 199.507 48.875 199.507 50.415C199.507 54.2183 199.775 57.94 200.312 61.58C199.565 61.86 198.772 62 197.932 62C196.135 62 195.237 61.125 195.237 59.375C195.237 58.535 195.365 56.89 195.622 54.44C195.879 51.9667 196.007 49.9833 196.007 48.49C196.007 43.52 195.727 39.4133 195.167 36.17ZM204.566 58.43L204.916 51.15C204.916 48.8867 204.59 46.74 203.936 44.71C204.59 44.43 205.395 44.29 206.351 44.29C208.218 44.29 209.151 45.3283 209.151 47.405C209.151 48.5717 209.023 50.2167 208.766 52.34C208.51 54.44 208.381 55.9683 208.381 56.925C208.381 58.0917 208.906 58.675 209.956 58.675C210.586 58.675 211.321 58.15 212.161 57.1C213.025 56.0267 213.76 54.8367 214.366 53.53C214.996 52.2 215.37 51.115 215.486 50.275C215.346 47.7083 215.148 45.8533 214.891 44.71C215.638 44.43 216.396 44.29 217.166 44.29C217.96 44.29 218.613 44.535 219.126 45.025C219.663 45.515 219.931 46.1217 219.931 46.845C219.931 47.5683 219.826 48.77 219.616 50.45C219.406 52.13 219.301 53.8917 219.301 55.735C219.301 57.555 219.511 59.5033 219.931 61.58C219.021 61.86 218.205 62 217.481 62C216.035 62 215.311 61.0433 215.311 59.13C215.311 58.29 215.405 57.1233 215.591 55.63C214.658 57.6133 213.515 59.2117 212.161 60.425C210.831 61.615 209.478 62.21 208.101 62.21C205.745 62.21 204.566 60.95 204.566 58.43ZM223.493 60.775C224.03 56.1317 224.298 52.935 224.298 51.185C224.298 46.285 224.1 41.28 223.703 36.17C224.403 35.89 225.15 35.75 225.943 35.75C226.736 35.75 227.413 36.0183 227.973 36.555C228.533 37.0917 228.813 37.7683 228.813 38.585C228.813 39.985 228.673 42.225 228.393 45.305C228.113 48.3617 227.938 50.4033 227.868 51.43C229.781 47.8367 231.683 45.5967 233.573 44.71C234.413 44.29 235.311 44.08 236.268 44.08C237.575 44.08 238.578 44.7683 239.278 46.145C240.001 47.5217 240.363 49.2017 240.363 51.185C240.363 54.3583 239.5 56.995 237.773 59.095C236.046 61.1717 233.806 62.21 231.053 62.21C228.323 62.21 225.803 61.7317 223.493 60.775ZM227.693 58.57C228.626 58.92 229.735 59.095 231.018 59.095C232.301 59.095 233.41 58.85 234.343 58.36C235.486 56.4 236.058 54.265 236.058 51.955C236.058 50.8583 235.93 49.7967 235.673 48.77C235.416 47.72 235.008 47.195 234.448 47.195C233.585 47.195 232.453 48.385 231.053 50.765C229.653 53.145 228.533 55.7467 227.693 58.57Z" fill="#2C2750"/>
</svg>
